<?xml version="1.0" encoding="utf-8"?>
<!-- Generator: Adobe Illustrator 26.1.0, SVG Export Plug-In . SVG Version: 6.00 Build 0)  -->
<svg version="1.1" id="Layer_1" xmlns="http://www.w3.org/2000/svg" xmlns:xlink="http://www.w3.org/1999/xlink" x="0px" y="0px"
	 viewBox="0 0 1093 1049.3" style="enable-background:new 0 0 1093 1049.3;" xml:space="preserve">
<style type="text/css">
	.st0{fill:#27A8E0;}
	.st1{fill:#2E699D;}
	.st2{fill:#FFFFFF;}
	.st3{fill:#159246;}
	.st4{fill:#875123;}
</style>
<g>
	<polygon class="st0" points="592.6,17.2 591.1,17.2 591.9,18.7 	"/>
	<polygon class="st1" points="460.1,17.2 460.9,18.7 461.7,17.2 	"/>
	<path class="st0" d="M753.7,296.3c0.7-0.4,1.3-0.9,2-1.3C755,295.5,754.4,295.9,753.7,296.3z"/>
	<path class="st0" d="M779.5,275.3c0.2-0.3,0.5-0.5,0.7-0.8C780,274.7,779.7,275,779.5,275.3z"/>
	<path class="st0" d="M773.9,280.9c-0.1,0.1-0.2,0.2-0.3,0.3C773.8,281.1,773.8,281,773.9,280.9z"/>
	<path class="st0" d="M786.7,265.9c0.1-0.2,0.2-0.3,0.3-0.5C786.9,265.6,786.8,265.7,786.7,265.9z"/>
	<path class="st0" d="M765.1,288.4c0.2-0.1,0.3-0.2,0.5-0.4C765.4,288.1,765.2,288.2,765.1,288.4z"/>
	<path class="st0" d="M788.4,262.8c-0.7,2.2-10.5,31.8-35.6,63.5C778,294.6,787.7,265,788.4,262.8z"/>
	<path class="st0" d="M788,263.5c0.1-0.2,0.2-0.3,0.2-0.5C788.2,263.2,788.1,263.4,788,263.5z"/>
	<path class="st0" d="M298.6,281.9c6.1,0.6,12.2,1.2,18.6,2.1C310.7,283.1,304.7,282.5,298.6,281.9z"/>
	<path class="st0" d="M788.6,262.4C788.6,262.4,788.5,262.5,788.6,262.4C788.5,262.5,788.5,262.4,788.6,262.4L788.6,262.4z"/>
	<path class="st0" d="M630,399.6c-9.1,1.6-18.8,2.8-29,3.2C611.2,402.4,620.8,401.2,630,399.6z"/>
	<path class="st0" d="M591.2,403c3.4,0,6.6-0.1,9.9-0.2c-4.2,0.2-8.7,0-13.1,0C589,402.8,590.1,403,591.2,403z"/>
	<path class="st0" d="M552.4,400.5c-2-0.2-4.1-0.5-6.1-0.8C548.3,400,550.4,400.2,552.4,400.5z"/>
	<path class="st0" d="M274.5,280.1c-6.7,0-13.1,0.4-19.2,1.1c7.9-1,16.8-0.9,25.9-0.6C279,280.5,276.5,280.1,274.5,280.1z"/>
	<path class="st0" d="M506.7,393.5c-1.8-0.3-3.6-0.7-5.4-1.1C503.1,392.8,504.9,393.2,506.7,393.5z"/>
	<path class="st0" d="M741.1,303.8C741.1,303.9,741.1,303.9,741.1,303.8L741.1,303.8C741.1,303.9,741.1,303.9,741.1,303.8z"/>
	<path class="st0" d="M458.2,383.4c-1.1-0.3-2.3-0.5-3.4-0.8C455.9,382.9,457,383.2,458.2,383.4z"/>
	<path class="st0" d="M192.3,299.7c17.7-8.4,38.7-15.3,63-18.4C230.9,284.4,210,291.2,192.3,299.7z"/>
	<path class="st0" d="M267.9,343.3c-11.8-1.4-22.9-2.1-33.5-2.3C245,341.2,256.1,341.9,267.9,343.3z"/>
	<path class="st0" d="M354.3,359.2c-5.4-1.2-10.6-2.2-15.9-3.4C343.7,357,348.9,358,354.3,359.2z"/>
	<path class="st0" d="M201.9,343.1c7.8-1.4,16.5-1.9,25.6-2C218.4,341.2,209.7,341.7,201.9,343.1z"/>
	<path class="st0" d="M404.8,370.9c1.7,0.4,3.4,0.8,5.1,1.2c-0.9-0.2-1.8-0.4-2.7-0.6C406.4,371.3,405.6,371.1,404.8,370.9z"/>
	<path class="st0" d="M168.1,313.3c-36.4,23.9-53.2,51.7-53.2,51.7l0,0C114.9,365,131.7,337.2,168.1,313.3z"/>
	<path class="st0" d="M274.9,344.3c8,1.1,16.5,2.5,24.9,4c-3.4-0.6-7.1-1.5-10.4-2C284.5,345.5,279.8,344.9,274.9,344.3z"/>
	<path class="st0" d="M601.2,340.1c-7.8-0.2-15.7-0.7-23.8-1.5C585.5,339.3,593.4,339.8,601.2,340.1z"/>
	<path class="st0" d="M628.8,339.7L628.8,339.7c-0.1,0-0.1,0-0.2,0C628.7,339.7,628.8,339.7,628.8,339.7z"/>
	<path class="st0" d="M562.8,337c-10-1.3-20.2-2.9-30.5-4.8C542.6,334.1,552.8,335.8,562.8,337z"/>
	<path class="st0" d="M471.7,319.3c-11-2.6-22-5.3-32.9-8.1l0,0C449.7,314,460.7,316.7,471.7,319.3z"/>
	<path class="st0" d="M517.6,329.5c-10.9-2.2-21.9-4.5-32.9-7.1C495.7,324.9,506.7,327.3,517.6,329.5z"/>
	<path class="st0" d="M438.8,311.2c-0.5-0.1-0.9-0.2-1.4-0.3C437.9,311,438.3,311.1,438.8,311.2L438.8,311.2z"/>
	<path class="st0" d="M741.1,303.9C741.1,303.9,741.1,303.9,741.1,303.9C741.1,303.9,741.1,303.9,741.1,303.9L741.1,303.9z"/>
	<path class="st0" d="M683.6,327.9c2.2-0.7,4.1-1.4,6.2-2.1C687.8,326.5,685.8,327.2,683.6,327.9z"/>
	<path class="st0" d="M723.5,312.6c0.9-0.4,1.9-0.8,2.8-1.2C725.4,311.8,724.4,312.2,723.5,312.6z"/>
	<path class="st0" d="M704.2,320.6c1.9-0.7,3.8-1.4,5.6-2.2C707.9,319.2,706.1,319.9,704.2,320.6z"/>
	<path class="st0" d="M641.9,338.2c6.5-0.8,12.9-1.9,18.8-3.5C654.8,336.3,648.3,337.3,641.9,338.2z"/>
	<path class="st0" d="M628.9,339.6C628.9,339.6,628.9,339.6,628.9,339.6L628.9,339.6C628.9,339.6,628.9,339.6,628.9,339.6z"/>
	<path class="st2" d="M274.9,344.3c-2.3-0.3-4.7-0.7-7-1C270.2,343.6,272.6,344,274.9,344.3z"/>
	<path class="st2" d="M227.5,341c2.3,0,4.6,0,7,0c-1.2,0-2.7-0.3-3.9-0.3C229.5,340.8,228.6,341,227.5,341z"/>
	<path class="st2" d="M114.9,365c0,0,26.7-8.4,56.7-15.5C141.7,356.7,114.9,365,114.9,365L114.9,365z"/>
	<path class="st2" d="M281.2,280.6c5.6,0.2,11.5,0.7,17.4,1.3C292.6,281.3,286.7,280.8,281.2,280.6z"/>
	<path class="st2" d="M321.8,284.6c-1.6-0.3-3-0.3-4.6-0.5c1.4,0.2,3,0.5,4.5,0.8L321.8,284.6z"/>
	<path class="st2" d="M532.2,332.2c-4.9-0.9-9.8-1.8-14.7-2.8C522.5,330.5,527.4,331.4,532.2,332.2z"/>
	<path class="st2" d="M546.3,399.7c-12.8-1.6-25.9-3.7-39.6-6.2C520.4,396,533.5,398.1,546.3,399.7z"/>
	<path class="st2" d="M577.4,338.6c-4.9-0.5-9.7-0.9-14.6-1.5C567.7,337.7,572.5,338.1,577.4,338.6z"/>
	<path class="st2" d="M587.9,402.8c-11.2-0.1-23.1-0.9-35.5-2.3C564.8,401.9,576.7,402.7,587.9,402.8z"/>
	<path class="st2" d="M484.6,322.4c-4.3-1-8.6-2-12.9-3.1C476.1,320.3,480.3,321.4,484.6,322.4z"/>
	<path class="st2" d="M454.8,382.6c-14.9-3.4-29.9-6.9-44.8-10.5C424.9,375.7,439.9,379.3,454.8,382.6z"/>
	<path class="st2" d="M501.3,392.4c-14.1-2.7-28.5-5.7-43.1-9C472.8,386.7,487.2,389.7,501.3,392.4z"/>
	<path class="st2" d="M632,399.2c-0.7,0.1-1.3,0.3-2,0.4C630.7,399.5,631.3,399.3,632,399.2z"/>
	<path class="st2" d="M601.2,340.1c3,0.1,6.1,0.6,9,0.6c6.3,0,12.3-0.5,18.4-1C619.8,340.3,610.6,340.3,601.2,340.1z"/>
	<polygon class="st2" points="752.8,326.3 752.8,326.3 752.8,326.3 	"/>
	<path class="st2" d="M780.2,274.5c3.1-3.6,5.2-6.5,6.5-8.6C785.4,268,783.3,270.9,780.2,274.5z"/>
	<path class="st2" d="M788.3,263c0.2-0.3,0.2-0.5,0.2-0.6C788.5,262.5,788.4,262.8,788.3,263z"/>
	<path class="st2" d="M787,265.4c0.5-0.8,0.8-1.4,1.1-1.9C787.8,264,787.4,264.6,787,265.4z"/>
	<path class="st2" d="M741.1,303.8c4.6-2.5,8.7-5,12.6-7.5C749.9,298.8,745.8,301.3,741.1,303.8z"/>
	<path class="st2" d="M765.5,288c3.1-2.4,5.8-4.7,8.1-6.9C771.3,283.3,768.6,285.6,765.5,288z"/>
	<path class="st2" d="M779.5,275.3c-1.6,1.7-3.4,3.6-5.5,5.6C776.1,278.9,777.9,277,779.5,275.3z"/>
	<path class="st2" d="M788.6,262.4L788.6,262.4c0,0-0.1,0.3-0.1,0.4C788.4,262.7,788.6,262.4,788.6,262.4z"/>
	<path class="st2" d="M755.6,295.1c3.5-2.3,6.6-4.5,9.4-6.7C762.3,290.5,759.1,292.8,755.6,295.1z"/>
	<path class="st2" d="M338.4,355.8c-13.2-2.8-26-5.3-38.5-7.5C312.4,350.5,325.2,353,338.4,355.8z"/>
	<path class="st2" d="M404.8,370.9c-17-4.1-33.9-8-50.5-11.7C370.9,362.9,387.7,366.9,404.8,370.9z"/>
	<path class="st2" d="M689.8,325.8c5-1.7,9.8-3.4,14.3-5.1C699.7,322.4,694.8,324.1,689.8,325.8z"/>
	<path class="st2" d="M709.7,318.5c4.9-2,9.4-3.9,13.7-5.9C719.2,314.5,714.6,316.5,709.7,318.5z"/>
	<path class="st2" d="M628.9,339.6c4.4-0.3,8.8-0.8,13-1.4C637.6,338.8,633.3,339.3,628.9,339.6z"/>
	<path class="st2" d="M660.7,334.7c8.2-2.2,15.7-4.5,22.9-6.8C676.4,330.2,668.9,332.5,660.7,334.7z"/>
	<polygon class="st2" points="752.8,326.3 752.8,326.3 752.8,326.3 	"/>
	<path class="st2" d="M726.3,311.3c5.4-2.5,10.3-5,14.8-7.5C736.6,306.3,731.6,308.8,726.3,311.3z"/>
	<path class="st0" d="M379.8,363.3c-0.4,0.5-0.7,1.1-1.1,1.6c0.4,0.1,0.8,0.2,1.1,0.3C379.8,364.5,379.8,363.8,379.8,363.3z"/>
	<g>
		<g>
			<g>
				<path class="st3" d="M584.9,631.6c-17.2,0-33.9-3.2-49.7-9.6c-3.9-1.6-5.8-6.1-4.3-10c1.6-3.9,6.1-5.8,10-4.3
					c13.9,5.6,28.7,8.5,43.9,8.5c48.3,0,91.2-29,109.2-73.8c1.6-4,6-5.8,10-4.3c3.9,1.6,5.8,6.1,4.3,10
					C688,598.8,639.5,631.6,584.9,631.6z"/>
			</g>
			<path class="st4" d="M783.4,523.4l-45.7-87.3c0,17.5,0,35.3,0,51.4c0,82.9-67.2,149.8-149.8,149.8
				c-82.9,0-149.8-66.9-149.8-149.8c0-15.9,0-31,0-45.4c-2.8-0.7-5.7-1.3-8.5-2L391,514.1c2,18.7,6.5,36.7,13.2,53.5l-55.1,61.8
				l38.5,53.2l71.1-39.7c16.9,14.5,36,26.2,57.2,34.1l11.1,74.1h77.5l17.8-63.4c26.8-4.9,51.7-14.8,73.5-29.2l57.2,32.3l52.9-49.2
				l-40.6-61.2C774.3,562.8,780.2,543.6,783.4,523.4z"/>
			<g>
				<path class="st0" d="M399.6,433.3c-32.9-7.4-64.1-13.8-88.6-16.6l-61.3,117.1h131l10.3-19.7l38.6-73.8
					C419.6,437.9,409.5,435.5,399.6,433.3z"/>
				<path class="st3" d="M621.7,430c-41.4,2.2-106-14.9-169.9-32.1c-4.6-1.2-9.1-2.4-13.7-3.7c-6.3-1.7-12.6-3.4-18.8-5
					c-29.9-7.9-58.6-15.1-83.7-19.5c-14.6-2.6-28.1-4.3-39.7-4.6c-80.7-2.1-122.6,80.7-122.6,80.7s44-25.1,105.8-30.4
					c8.4-0.7,19.4-0.1,31.9,1.4c24.5,2.8,55.7,9.2,88.6,16.6c9.9,2.2,19.9,4.5,30,6.9c2.8,0.7,5.7,1.3,8.5,2
					c63.1,14.9,125.7,30.5,155.2,30.7c89.1,0.8,125.7-60.8,125.7-60.8C706.5,424.8,701.3,425.8,621.7,430z"/>
				<path class="st1" d="M818.8,340.9c-15.2,18.1-35.5,35.9-61.1,50c-6.2,3.4-13,6.4-20,9.3c-5.1,2.2-9.9,4.6-15.4,6.5l15.4,29.4
					l45.7,87.3l5.4,10.3h131L818.8,340.9z"/>
				<path class="st1" d="M679.4,324.7c13.1-0.6,25.3-2,35.7-4.8c34.9-9.5,59.6-20,77.2-29.7l-142-271.4l-65.5,125.1L679.4,324.7z"/>
				<path class="st0" d="M846.9,262.5c0,0.1-0.1,0.2-0.2,0.6c-0.1,0.2-0.1,0.2-0.2,0.5c-0.2,0.5-0.6,1.1-1.1,1.9
					c-0.1,0.2-0.2,0.3-0.3,0.5c-1.3,2.1-3.3,5-6.5,8.6c-0.2,0.3-0.5,0.5-0.7,0.8c-1.6,1.7-3.4,3.6-5.5,5.6c-0.1,0.1-0.2,0.2-0.3,0.3
					c-2.3,2.2-5,4.5-8.1,6.9c-0.1,0.1-0.3,0.2-0.5,0.4c-2.8,2.2-6,4.4-9.4,6.7c-0.6,0.4-1.3,0.9-2,1.3c-3.8,2.5-7.9,4.9-12.6,7.5
					c0,0,0,0-0.1,0c0,0,0,0,0,0c-4.5,2.5-9.4,5-14.8,7.5c-0.9,0.4-1.9,0.8-2.8,1.2c-4.3,2-8.9,3.9-13.7,5.9
					c-1.8,0.7-3.7,1.4-5.6,2.2c-4.5,1.7-9.3,3.4-14.3,5.1c-2.1,0.7-4.1,1.4-6.2,2.1c-7.2,2.3-14.7,4.6-22.9,6.8
					c-6,1.6-12.3,2.7-18.8,3.5c-4.2,0.6-8.6,1.1-13,1.4c0,0,0,0-0.1,0c-0.1,0-0.1,0-0.2,0c-6,0.5-12.1,1-18.4,1
					c-2.9,0-6.1-0.5-9-0.6c-7.8-0.2-15.7-0.7-23.8-1.5c-4.9-0.5-9.7-0.9-14.6-1.5c-10-1.3-20.2-2.9-30.5-4.8
					c-4.9-0.9-9.7-1.8-14.7-2.8c-10.9-2.2-21.9-4.6-32.9-7.1c-4.3-1-8.6-2-12.9-3.1c-11-2.6-22-5.3-32.9-8.1
					c-0.5-0.1-0.9-0.2-1.4-0.3c0.5,0.1,0.9,0.2,1.4,0.3l7.4-14l80.2-153.3l65.5-125.1l-0.8-1.5H520.1l-0.8,1.5L387.5,270.5
					l-7.4,14.1l-0.1,0.2c-1.5-0.2-3-0.6-4.5-0.8c-6.5-1-12.5-1.5-18.6-2.1c-6-0.6-11.8-1.1-17.4-1.3c-9.1-0.3-18-0.4-25.9,0.6
					c-24.4,3.1-45.3,9.9-63,18.4c-8.9,4.2-16.9,8.9-24.2,13.6c-36.4,23.9-53.1,51.7-53.1,51.7c0,0,26.8-8.4,56.7-15.5
					c10-2.4,20.4-4.6,30.2-6.4c7.8-1.4,16.5-1.9,25.6-2c1.1,0,2-0.2,3.1-0.2c1.2,0,2.6,0.2,3.9,0.3c10.5,0.2,21.7,0.9,33.5,2.3
					c2.3,0.3,4.7,0.7,7,1c4.8,0.6,9.6,1.2,14.5,2c3.3,0.5,7,1.4,10.4,2c12.5,2.2,25.3,4.7,38.5,7.5c5.3,1.1,10.5,2.2,15.9,3.4
					c8,1.8,16.2,3.8,24.4,5.7c0.4-0.5,0.7-1.1,1.1-1.6c0,0.6,0,1.3,0,1.8c8.3,1.9,16.6,3.8,25,5.8c0.8,0.2,1.6,0.4,2.5,0.6
					c0.9,0.2,1.8,0.4,2.7,0.6c15,3.6,30,7.1,44.8,10.5c1.1,0.3,2.3,0.5,3.4,0.8c14.6,3.3,29,6.3,43.1,9c1.8,0.3,3.6,0.7,5.4,1.1
					c13.6,2.5,26.8,4.6,39.6,6.2c2,0.3,4.1,0.5,6.1,0.8c12.4,1.4,24.3,2.2,35.5,2.3c4.4,0.1,8.9,0.2,13.1,0
					c10.2-0.4,19.8-1.6,29-3.2c0.7-0.1,1.3-0.3,2-0.4c8.6-1.6,16.9-3.7,24.8-6.1c0,0,0,0,0,0c0,0,0,0,0,0c22.3-7,41.2-17.2,57-28.9
					c-10.1,7.4-21.8,13.8-34.4,19.6c3.7-1.7,7.6-3.2,11.1-5.1c8.3-4.5,16.3-9.3,23.4-14.5c0.1,0,0.1-0.1,0.2-0.1
					c15.8-11.7,28.6-24.8,38.9-37.7l0,0c0,0,0,0,0,0c25.1-31.7,34.9-61.3,35.6-63.5C846.8,262.7,846.9,262.4,846.9,262.5
					C846.9,262.4,846.9,262.5,846.9,262.5z"/>
			</g>
		</g>
		<g>
			<g>
				<path class="st1" d="M508.6,873c1.8,0.5,3.6,1.1,5,2.4c2.4,2.1,3.6,4.8,3.5,8c0,1.9,0,1.9,1.8,2.6c1.7,0.7,3.3,1.4,5.2,2.2
					c0.5-0.6,1.1-1.4,1.8-2c3.7-3.4,9.4-3.6,13.1-0.3c2.2,1.9,4.2,3.9,6.1,6.1c3.4,3.8,3.2,9.5-0.3,13.3c-0.6,0.6-1.2,1.2-1.8,1.7
					c1,2.4,2,4.7,2.9,6.9c1.5,0.1,3,0.1,4.4,0.4c4.5,0.9,7.8,5,7.8,9.6c0,2.3,0,4.7,0,7c0,5.4-4.2,9.9-9.6,9.9
					c-2.2,0-3.2,0.7-3.7,2.7c-0.4,1.5-1.2,2.8-1.9,4.4c0.6,0.5,1.3,1,1.9,1.7c3.5,3.7,3.7,9.5,0.3,13.3c-1.8,2.1-3.8,4.1-5.9,6
					c-3.9,3.5-9.7,3.3-13.5-0.3c-0.6-0.6-1.1-1.2-1.7-1.7c-2.3,0.9-4.5,1.8-6.7,2.7c-0.2,0.1-0.3,0.6-0.3,0.9
					c-0.1,1.4-0.1,2.9-0.4,4.2c-1.1,4.4-5.1,7.3-9.6,7.3c-2.3,0-4.5,0-6.8,0c-5.6,0-10-4.2-10-9.7c0-2.1-0.6-3.1-2.6-3.6
					c-1.1-0.2-2.1-0.7-3-1.3c-1-0.6-1.6-0.4-2.4,0.4c-1.4,1.7-3.3,2.8-5.5,3.3c-3.2,0.6-6.2,0.1-8.7-2.1c-2.1-1.9-4.2-3.9-6-6
					c-3.4-3.9-3.2-9.6,0.3-13.4c0.6-0.6,1.3-1.1,1.8-1.6c-0.9-2.3-1.7-4.5-2.6-6.5c-0.1-0.3-0.5-0.5-0.9-0.5c-1.1-0.1-2.3,0-3.4-0.2
					c-4.3-0.9-7-3.5-8.1-7.8c-0.1-0.2-0.1-0.4-0.2-0.6c0-3.3,0-6.5,0-9.8c0.1-0.3,0.2-0.5,0.2-0.8c0.8-3.3,2.8-5.6,5.9-7
					c1.7-0.8,3.5-0.8,5.3-0.8c0.4,0,0.9-0.2,1.1-0.5c0.9-2.1,1.7-4.2,2.6-6.5c-0.5-0.5-1.1-1-1.7-1.6c-3.7-3.9-3.8-9.7-0.3-13.6
					c1.8-2,3.8-4,5.8-5.8c3.8-3.4,9.6-3.3,13.4,0.2c0.6,0.6,1.2,1.3,1.7,1.9c2.1-0.9,3.9-1.7,5.7-2.3c1.1-0.4,1.4-0.8,1.4-1.9
					c-0.2-3.4,0.9-6.3,3.5-8.5c1.5-1.3,3.2-1.9,5-2.4C502,873,505.3,873,508.6,873z M503.6,975.7c1.1,0,2.2,0,3.3,0
					c2.3,0,3.8-1.6,3.8-3.8c0-1.4,0-2.8,0-4.3c0-1.8,0.8-2.9,2.6-3.4c3.3-0.9,6.4-2.2,9.4-3.9c1.7-0.9,3-0.7,4.3,0.6
					c1,1,2,2,2.9,2.9c1.7,1.7,3.8,1.7,5.5,0c1.5-1.5,3-3,4.5-4.5c1.7-1.7,1.6-3.7,0-5.5c-1-1-2-2-3-3c-1.2-1.3-1.5-2.6-0.6-4.2
					c1.7-3,3-6.2,4-9.6c0.4-1.6,1.6-2.5,3.3-2.5c1.5,0,3,0,4.5,0c2.1,0,3.7-1.5,3.7-3.6c0.1-2.3,0.1-4.6,0-6.9
					c-0.1-2.1-1.6-3.5-3.7-3.6c-1.4,0-2.8,0-4.3,0c-1.9,0-3-0.8-3.5-2.6c-0.9-3.3-2.2-6.4-3.9-9.4c-0.9-1.6-0.7-2.9,0.6-4.3
					c1-1,2.1-2,3.1-3.1c1.6-1.6,1.6-3.7,0-5.3c-1.5-1.6-3-3.1-4.6-4.6c-1.7-1.6-3.7-1.6-5.4,0c-1,1-2,2-3,3
					c-1.3,1.3-2.7,1.5-4.2,0.6c-3-1.7-6.2-3-9.5-3.9c-1.7-0.5-2.5-1.6-2.6-3.4c0-1.5,0-2.9,0-4.4c0-2-1.5-3.6-3.5-3.7
					c-2.3-0.1-4.7-0.1-7,0c-2.1,0.1-3.5,1.7-3.5,3.8c0,1.4,0,2.8,0,4.2c0,2-0.8,3.1-2.8,3.6c-3.2,0.9-6.3,2.2-9.2,3.8
					c-1.7,1-3,0.8-4.4-0.6c-1-1-2-2-3-3c-1.6-1.5-3.7-1.5-5.2,0c-1.6,1.6-3.2,3.1-4.7,4.7c-1.5,1.6-1.5,3.6,0,5.2
					c1,1,2.1,2.1,3.1,3.1c1.3,1.3,1.5,2.7,0.6,4.3c-1.7,3-3,6.2-3.9,9.5c-0.5,1.7-1.6,2.5-3.4,2.5c-1.4,0-2.8,0-4.3,0
					c-2.3,0-3.8,1.5-3.9,3.8c0,2.2,0,4.4,0,6.6c0,2.2,1.6,3.7,3.8,3.7c1.4,0,2.8,0,4.3,0c1.8,0,3,0.8,3.4,2.6
					c0.9,3.3,2.2,6.5,3.9,9.5c0.9,1.6,0.7,2.9-0.6,4.2c-1,1-2.1,2.1-3.1,3.1c-1.6,1.7-1.6,3.7,0,5.4c1.5,1.5,3,3.1,4.6,4.6
					c1.6,1.6,3.7,1.6,5.3,0c1-1,2.1-2.1,3.1-3.1c1.3-1.3,2.6-1.5,4.2-0.6c3,1.7,6.2,3,9.6,4c1.7,0.5,2.5,1.6,2.5,3.4
					c0,1.5,0,2.9,0,4.4c0,2.1,1.5,3.7,3.7,3.7C501.4,975.7,502.5,975.7,503.6,975.7z"/>
				<path class="st1" d="M503.7,951.3c-13,0.1-23.8-10.7-23.8-23.8c0-13.1,10.7-23.8,23.8-23.8c13.1,0,23.6,10.6,23.7,23.7
					C527.5,940.5,516.8,951.3,503.7,951.3z M503.7,944.8c9.6,0,17.3-7.7,17.3-17.3c0-9.6-7.7-17.2-17.3-17.3
					c-9.6,0-17.3,7.7-17.3,17.3C486.4,937.1,494.1,944.8,503.7,944.8z"/>
			</g>
			<g>
				<path class="st1" d="M145.3,849.7l-5-17.4h-23.7l-5.3,17.4h-22l27.3-88.3h28.7l27.7,88.3H145.3z M121.2,813h14.3l-7.2-25.6
					L121.2,813z"/>
				<path class="st1" d="M230.9,782.5v67.2h-25.7v-67.2h-18.3v-21.2h62.3v21.2H230.9z"/>
				<path class="st1" d="M350.4,761.4v88.3h-27.1v-34.4h-20.7v34.4h-27.1v-88.3h27.1v32.5h20.7v-32.5H350.4z"/>
				<path class="st1" d="M411.4,761.4v88.3h-27.1v-88.3H411.4z"/>
				<path class="st1" d="M607.7,761.4l-23.4,88.3h-22.8L549.1,801l-11.7,48.7h-23.7l-23.5-88.3h25.5l12.3,50.8l12.1-50.8h21.3
					l13.1,50.9l12.4-50.9H607.7z"/>
				<path class="st1" d="M679.3,849.7l-5-17.4h-23.7l-5.3,17.4h-22l27.3-88.3h28.7l27.7,88.3H679.3z M655.2,813h14.3l-7.2-25.6
					L655.2,813z"/>
				<path class="st1" d="M764.9,782.5v67.2h-25.7v-67.2h-18.3v-21.2h62.3v21.2H764.9z"/>
				<path class="st1" d="M875.9,828.6v21.1h-66.5v-88.3h66.5v20.4h-39.9v12.8h32.2v19.6h-32.2v14.4H875.9z"/>
				<path class="st1" d="M983.9,849.7h-30.1l-12.9-33.8h-8.5v33.8h-27.1v-88.3h46.1c10.2,0,18.1,2.4,23.7,7.2
					c5.6,4.8,8.4,11.1,8.4,18.9c0,5.1-1,9.6-3.1,13.5c-2.1,3.9-6.2,7.3-12.5,10.3L983.9,849.7z M932.3,797h11.6
					c3.4,0,6.1-0.7,8.2-2.1c2.1-1.4,3.1-3.5,3.1-6.3c0-5.6-3.5-8.5-10.4-8.5h-12.5V797z"/>
			</g>
			<g>
				<path class="st1" d="M440.2,883.2l-23.4,88.3h-22.8l-12.4-48.7l-11.7,48.7h-23.7l-23.5-88.3h25.5l12.3,50.8l12-50.8h21.3
					l13.1,50.9l12.4-50.9H440.2z"/>
				<path class="st1" d="M653.9,971.5h-30l-12.9-33.8h-8.5v33.8h-27.1v-88.3h46.1c10.2,0,18.1,2.4,23.7,7.2
					c5.6,4.8,8.4,11.1,8.4,18.9c0,5.1-1,9.6-3.1,13.5c-2.1,3.9-6.2,7.3-12.6,10.3L653.9,971.5z M602.4,918.8H614
					c3.4,0,6.2-0.7,8.2-2.1s3.1-3.5,3.1-6.3c0-5.6-3.5-8.5-10.4-8.5h-12.5V918.8z"/>
				<path class="st1" d="M764.9,971.5h-29.7L720,938.1l-9.2,13v20.4h-25.6v-88.3h25.6v36.5l24.4-36.5h24.4l-22.3,32.3L764.9,971.5z"
					/>
				<path class="st1" d="M781.6,945.9l25.2-4.5c2.1,7.1,7.5,10.7,16.3,10.7c6.8,0,10.2-1.8,10.2-5.4c0-1.9-0.8-3.4-2.4-4.4
					c-1.6-1.1-4.4-2-8.4-2.8c-15.5-3-25.4-6.8-29.8-11.6c-4.4-4.8-6.6-10.4-6.6-16.9c0-8.3,3.2-15.2,9.5-20.8
					c6.3-5.5,15.4-8.3,27.3-8.3c18,0,29.9,7.2,35.7,21.7l-22.5,6.8c-2.3-5.9-7-8.9-14.2-8.9c-5.9,0-8.9,1.8-8.9,5.5
					c0,1.6,0.7,2.9,2,3.8c1.4,0.9,3.9,1.8,7.8,2.6c10.6,2.2,18.1,4.2,22.5,5.9c4.4,1.7,8.2,4.7,11.1,8.8c3,4.2,4.4,9.1,4.4,14.7
					c0,8.9-3.6,16.2-10.8,21.7c-7.3,5.5-16.8,8.3-28.5,8.3C799.9,972.9,786.7,963.9,781.6,945.9z"/>
			</g>
			<g>
				<path class="st1" d="M40.9,986.8l11.3,36h-9l-2.2-7.4H29.2l-2.3,7.4h-7.4l11.5-36H40.9z M31.2,1008.7h7.6L35.1,996L31.2,1008.7z
					"/>
				<path class="st1" d="M78.6,1012.7c-0.3,3.2-1.5,5.7-3.7,7.6c-2.2,1.9-5,2.9-8.5,2.9c-3.8,0-6.8-1.2-9.2-3.7
					c-2.4-2.5-3.5-5.8-3.5-10c0-4.2,1.2-7.5,3.6-10.1c2.4-2.6,5.6-3.9,9.7-3.9c3.2,0,5.9,1,8.1,2.9c2.1,2,3.3,4.4,3.5,7.3l-7.3,0.4
					c-0.3-3.2-1.6-4.8-4.2-4.8c-3.1,0-4.7,2.5-4.7,7.6c0,3.4,0.4,5.5,1.3,6.5c0.9,0.9,1.9,1.4,3.2,1.4c2.4,0,3.9-1.5,4.4-4.6
					L78.6,1012.7z"/>
				<path class="st1" d="M106.2,1012.7c-0.3,3.2-1.5,5.7-3.7,7.6c-2.2,1.9-5,2.9-8.5,2.9c-3.8,0-6.8-1.2-9.2-3.7
					c-2.4-2.5-3.5-5.8-3.5-10c0-4.2,1.2-7.5,3.6-10.1c2.4-2.6,5.6-3.9,9.7-3.9c3.2,0,5.9,1,8.1,2.9c2.1,2,3.3,4.4,3.5,7.3l-7.3,0.4
					c-0.3-3.2-1.6-4.8-4.2-4.8c-3.1,0-4.7,2.5-4.7,7.6c0,3.4,0.4,5.5,1.3,6.5s1.9,1.4,3.2,1.4c2.4,0,3.9-1.5,4.4-4.6L106.2,1012.7z"
					/>
				<path class="st1" d="M134.3,1010.7h-17.1c0,0.5,0,0.9,0,1.2c0,1.9,0.5,3.3,1.5,4.3c1,1,2.2,1.5,3.6,1.5c2.6,0,4.2-1.4,4.7-4.2
					l7.1,0.5c-2,6.1-6,9.2-12.1,9.2c-2.6,0-4.9-0.5-6.8-1.6c-1.8-1.1-3.4-2.6-4.6-4.7c-1.2-2-1.8-4.5-1.8-7.3
					c0-4.2,1.2-7.6,3.6-10.2c2.4-2.6,5.5-3.9,9.3-3.9c3.4,0,6.4,1.2,8.8,3.6C133.1,1001.6,134.3,1005.4,134.3,1010.7z M117.2,1006.2
					h9.5c-0.3-3.7-1.8-5.5-4.5-5.5C119.2,1000.7,117.5,1002.5,117.2,1006.2z"/>
				<path class="st1" d="M139.3,1022.7v-36h7.9v36H139.3z"/>
				<path class="st1" d="M177.5,1010.7h-17.1c0,0.5,0,0.9,0,1.2c0,1.9,0.5,3.3,1.5,4.3c1,1,2.2,1.5,3.6,1.5c2.6,0,4.2-1.4,4.7-4.2
					l7.1,0.5c-2,6.1-6,9.2-12.1,9.2c-2.6,0-4.9-0.5-6.8-1.6c-1.8-1.1-3.4-2.6-4.6-4.7c-1.2-2-1.8-4.5-1.8-7.3
					c0-4.2,1.2-7.6,3.6-10.2c2.4-2.6,5.5-3.9,9.3-3.9c3.4,0,6.4,1.2,8.8,3.6C176.3,1001.6,177.5,1005.4,177.5,1010.7z M160.3,1006.2
					h9.5c-0.3-3.7-1.8-5.5-4.5-5.5C162.3,1000.7,160.7,1002.5,160.3,1006.2z"/>
				<path class="st1" d="M190.1,1022.7h-7.6v-26.6h7.2v5c1.1-3.7,3-5.5,5.7-5.5c0.4,0,0.9,0,1.4,0.1v7.8c-1.6,0-2.8,0.2-3.7,0.7
					c-0.9,0.5-1.6,1.4-2.2,2.6c-0.6,1.3-0.8,3-0.8,5.2V1022.7z"/>
				<path class="st1" d="M224.4,1022.7h-7.6c-0.2-1.1-0.4-2.4-0.4-4.2c-1.3,1.9-2.7,3.2-4,3.8c-1.3,0.6-2.8,0.9-4.5,0.9
					c-2.5,0-4.5-0.7-6-2c-1.5-1.4-2.3-3.2-2.3-5.5c0-1.7,0.5-3.2,1.3-4.6c0.9-1.4,2.3-2.5,4.3-3.3c2-0.8,5.6-1.4,10.8-1.8v-1.5
					c0-2.6-1.3-3.9-3.9-3.9c-2.7,0-4.3,1.3-4.6,3.9l-7.3-0.7c0.5-3,1.9-5.2,4.3-6.4c2.4-1.3,5.1-1.9,8.1-1.9c1.8,0,3.5,0.2,5.1,0.6
					c1.6,0.4,2.8,1.1,3.7,1.9c0.9,0.8,1.5,1.7,1.8,2.7c0.3,0.9,0.5,2.6,0.5,4.9v12.1C223.9,1020.1,224.1,1021.7,224.4,1022.7z
					 M216.1,1010c-5.5,0.5-8.2,2.2-8.2,5c0,0.9,0.3,1.7,0.9,2.4c0.6,0.7,1.4,1,2.5,1c1.4,0,2.5-0.6,3.5-1.7c0.9-1.2,1.4-2.6,1.4-4.3
					V1010z"/>
				<path class="st1" d="M239.3,1002.2v11.3c0,1.4,0.2,2.3,0.6,2.8s1.4,0.7,3,0.7c0.7,0,1.6,0,2.5-0.1v5.8c-2.3,0.4-3.9,0.6-4.9,0.6
					c-3.3,0-5.6-0.6-7-1.9c-1.4-1.2-2.1-3.5-2.1-6.8v-12.4h-4.2v-6.1h4.7l0.6-7.8l6.8-0.5v8.4h5.7v6.1H239.3z"/>
				<path class="st1" d="M257.2,986v7.9h-7.9V986H257.2z M257.2,996.1v26.6h-7.9v-26.6H257.2z"/>
				<path class="st1" d="M286.8,1022.7H279v-14.9c0-1.8-0.1-3-0.2-3.7c-0.1-0.7-0.5-1.2-1-1.7c-0.6-0.5-1.2-0.7-2.1-0.7
					c-2.8,0-4.1,2-4.1,6.1v14.9h-7.9v-26.6h7.3v4.5c1.2-2.1,2.4-3.5,3.6-4.1c1.2-0.6,2.4-0.9,3.8-0.9c2.5,0,4.6,0.7,6.1,2
					c1.5,1.4,2.3,4,2.3,8V1022.7z"/>
				<path class="st1" d="M319.9,996.7c-0.8-0.2-1.5-0.3-2.1-0.3c-1.7,0-2.7,0.8-3,2.3c1.4,1.5,2.1,3.2,2.1,5.1c0,2.5-1.1,4.5-3.2,6
					c-2.1,1.5-5.1,2.2-9.1,2.2c-1.4,0-2.8-0.1-4.1-0.4c-0.9,0.5-1.3,1.2-1.3,2c0,0.9,0.4,1.5,1.1,1.8c0.8,0.3,2.6,0.5,5.5,0.7
					c4.1,0.2,6.9,0.5,8.5,0.8s2.9,1,3.9,2.2c1.1,1.1,1.6,2.6,1.6,4.3c0,2.4-1.1,4.5-3.4,6.2c-2.3,1.7-6.3,2.5-12,2.5
					c-5.4,0-9-0.6-10.9-1.7c-1.9-1.2-2.8-2.7-2.8-4.4c0-2.4,1.5-4,4.6-4.8c-2.2-1.1-3.4-2.7-3.4-4.7c0-2.5,1.8-4.5,5.3-5.9
					c-3.1-1.3-4.7-3.5-4.7-6.5c0-2.5,1.1-4.5,3.3-6c2.2-1.5,5.2-2.3,9-2.3c2.4,0,4.8,0.4,7,1.2c0.2-1.5,0.6-2.8,1.3-3.7
					c0.7-1,2.3-1.5,4.6-1.5c0.8,0,1.5,0.1,2.2,0.2V996.7z M299.4,1022.5c-0.3,0-0.7,0.2-1.2,0.6c-0.5,0.4-0.7,0.9-0.7,1.5
					c0,1.2,0.8,1.9,2.3,2.2s3.3,0.4,5.4,0.4c2.7,0,4.6-0.2,5.6-0.6c1.1-0.4,1.6-1.1,1.6-2c0-0.7-0.5-1.2-1.4-1.6
					c-0.9-0.4-3.3-0.6-7.2-0.6l-1.6,0c-1,0-1.6,0-2-0.1C299.9,1022.6,299.6,1022.5,299.4,1022.5z M304.6,999.8
					c-1.3,0-2.4,0.4-3.2,1.1c-0.8,0.7-1.1,1.7-1.1,2.9c0,2.7,1.4,4.1,4.3,4.1c1.4,0,2.5-0.4,3.3-1.2s1.2-1.7,1.2-2.9
					c0-1.1-0.4-2-1.1-2.8C307.2,1000.2,306.1,999.8,304.6,999.8z"/>
				<path class="st1" d="M354.7,986.8l11.3,36h-9l-2.2-7.4h-11.6l-2.3,7.4h-7.4l11.5-36H354.7z M345.1,1008.7h7.6l-3.8-12.6
					L345.1,1008.7z"/>
				<path class="st1" d="M392.4,1012.7c-0.3,3.2-1.5,5.7-3.7,7.6c-2.2,1.9-5,2.9-8.5,2.9c-3.8,0-6.8-1.2-9.2-3.7
					c-2.4-2.5-3.5-5.8-3.5-10c0-4.2,1.2-7.5,3.6-10.1c2.4-2.6,5.6-3.9,9.7-3.9c3.2,0,5.9,1,8.1,2.9c2.1,2,3.3,4.4,3.5,7.3l-7.3,0.4
					c-0.3-3.2-1.6-4.8-4.2-4.8c-3.1,0-4.7,2.5-4.7,7.6c0,3.4,0.4,5.5,1.3,6.5s1.9,1.4,3.2,1.4c2.4,0,3.9-1.5,4.4-4.6L392.4,1012.7z"
					/>
				<path class="st1" d="M420,1012.7c-0.3,3.2-1.5,5.7-3.7,7.6c-2.2,1.9-5,2.9-8.5,2.9c-3.8,0-6.8-1.2-9.2-3.7
					c-2.4-2.5-3.5-5.8-3.5-10c0-4.2,1.2-7.5,3.6-10.1c2.4-2.6,5.6-3.9,9.7-3.9c3.2,0,5.9,1,8.1,2.9c2.1,2,3.3,4.4,3.5,7.3l-7.3,0.4
					c-0.3-3.2-1.6-4.8-4.2-4.8c-3.1,0-4.7,2.5-4.7,7.6c0,3.4,0.4,5.5,1.3,6.5c0.9,0.9,1.9,1.4,3.2,1.4c2.4,0,3.9-1.5,4.4-4.6
					L420,1012.7z"/>
				<path class="st1" d="M448.2,1010.7H431c0,0.5,0,0.9,0,1.2c0,1.9,0.5,3.3,1.5,4.3c1,1,2.2,1.5,3.6,1.5c2.6,0,4.2-1.4,4.7-4.2
					l7.1,0.5c-2,6.1-6,9.2-12.1,9.2c-2.6,0-4.9-0.5-6.8-1.6c-1.8-1.1-3.4-2.6-4.6-4.7c-1.2-2-1.8-4.5-1.8-7.3
					c0-4.2,1.2-7.6,3.6-10.2c2.4-2.6,5.5-3.9,9.3-3.9c3.4,0,6.4,1.2,8.8,3.6C446.9,1001.6,448.2,1005.4,448.2,1010.7z M431,1006.2
					h9.5c-0.3-3.7-1.8-5.5-4.5-5.5C433,1000.7,431.4,1002.5,431,1006.2z"/>
				<path class="st1" d="M473,1002.5l-5.7,1.5c-0.7-2.4-2.4-3.6-5.2-3.6c-2.6,0-4,0.8-4,2.4c0,0.6,0.2,1.1,0.7,1.5s1.7,0.7,3.8,1
					c3,0.4,5.3,0.9,6.7,1.4s2.6,1.4,3.5,2.7c0.9,1.2,1.3,2.8,1.3,4.6c0,2.7-1,5-3.1,6.7c-2.1,1.7-5,2.6-8.7,2.6
					c-6.8,0-10.8-2.6-12.2-7.9l6.6-1c0.5,2.4,2.5,3.6,5.9,3.6c1.3,0,2.4-0.2,3.3-0.7c0.9-0.5,1.3-1.1,1.3-1.9c0-1.2-1-2-3-2.2
					c-5.4-0.7-8.9-1.7-10.6-3.1c-1.7-1.4-2.5-3.3-2.5-5.8c0-2.5,1-4.6,2.9-6.3c2-1.7,4.7-2.5,8.3-2.5c2.8,0,5.1,0.6,6.7,1.7
					C470.9,998.3,472.1,1000.1,473,1002.5z"/>
				<path class="st1" d="M498.6,1002.5l-5.7,1.5c-0.7-2.4-2.4-3.6-5.2-3.6c-2.6,0-4,0.8-4,2.4c0,0.6,0.2,1.1,0.7,1.5
					c0.5,0.4,1.7,0.7,3.8,1c3,0.4,5.3,0.9,6.7,1.4s2.6,1.4,3.5,2.7c0.9,1.2,1.3,2.8,1.3,4.6c0,2.7-1,5-3.1,6.7
					c-2.1,1.7-5,2.6-8.7,2.6c-6.8,0-10.8-2.6-12.2-7.9l6.6-1c0.5,2.4,2.5,3.6,5.9,3.6c1.3,0,2.4-0.2,3.3-0.7
					c0.9-0.5,1.3-1.1,1.3-1.9c0-1.2-1-2-3-2.2c-5.4-0.7-8.9-1.7-10.6-3.1c-1.7-1.4-2.5-3.3-2.5-5.8c0-2.5,1-4.6,2.9-6.3
					c2-1.7,4.7-2.5,8.3-2.5c2.8,0,5.1,0.6,6.7,1.7C496.4,998.3,497.7,1000.1,498.6,1002.5z"/>
				<path class="st1" d="M526.5,1002.2v11.3c0,1.4,0.2,2.3,0.6,2.8s1.4,0.7,3,0.7c0.7,0,1.6,0,2.5-0.1v5.8c-2.3,0.4-3.9,0.6-4.9,0.6
					c-3.3,0-5.6-0.6-7-1.9c-1.4-1.2-2.1-3.5-2.1-6.8v-12.4h-4.2v-6.1h4.7l0.6-7.8l6.8-0.5v8.4h5.7v6.1H526.5z"/>
				<path class="st1" d="M547.5,995.5c4.1,0,7.2,1.3,9.5,4c2.3,2.7,3.4,6,3.4,10c0,3.9-1.2,7.2-3.5,9.9c-2.4,2.6-5.5,3.9-9.4,3.9
					c-3.8,0-6.8-1.3-9.1-3.9c-2.3-2.6-3.4-5.9-3.4-10c0-2.8,0.5-5.2,1.5-7.2c1-2,2.4-3.6,4.2-4.8
					C542.5,996.2,544.7,995.5,547.5,995.5z M547.7,1000.7c-1.5,0-2.6,0.6-3.4,1.7c-0.8,1.2-1.1,3.4-1.1,6.9c0,3.2,0.4,5.4,1.1,6.8
					c0.7,1.4,1.8,2.1,3.3,2.1c1.3,0,2.4-0.6,3.2-1.8c0.8-1.2,1.2-3.4,1.2-6.7c0-3.5-0.4-5.9-1.1-7.1
					C550.3,1001.3,549.2,1000.7,547.7,1000.7z"/>
				<path class="st1" d="M622.3,986.8l-9,36H605l-5.9-23.8l-5.7,23.8h-8.2l-9.3-36h8.6l5,21.9c0,0.1,0.1,0.5,0.3,1.2
					c0.1,0.2,0.2,0.6,0.3,1.1l5.9-24.2h7.8l6.1,24.2c0.1-0.5,0.3-1.2,0.5-2.3l5.1-21.9H622.3z"/>
				<path class="st1" d="M647.7,1022.7h-7.6c-0.2-1.1-0.4-2.4-0.4-4.2c-1.3,1.9-2.7,3.2-4,3.8c-1.3,0.6-2.8,0.9-4.5,0.9
					c-2.5,0-4.5-0.7-6-2c-1.5-1.4-2.3-3.2-2.3-5.5c0-1.7,0.5-3.2,1.3-4.6c0.9-1.4,2.3-2.5,4.3-3.3c2-0.8,5.6-1.4,10.8-1.8v-1.5
					c0-2.6-1.3-3.9-3.9-3.9c-2.7,0-4.3,1.3-4.6,3.9l-7.3-0.7c0.5-3,1.9-5.2,4.3-6.4c2.4-1.3,5.1-1.9,8.1-1.9c1.8,0,3.5,0.2,5.1,0.6
					c1.6,0.4,2.8,1.1,3.7,1.9c0.9,0.8,1.5,1.7,1.8,2.7c0.3,0.9,0.5,2.6,0.5,4.9v12.1C647.3,1020.1,647.4,1021.7,647.7,1022.7z
					 M639.4,1010c-5.5,0.5-8.2,2.2-8.2,5c0,0.9,0.3,1.7,0.9,2.4c0.6,0.7,1.4,1,2.5,1c1.4,0,2.5-0.6,3.5-1.7c0.9-1.2,1.4-2.6,1.4-4.3
					V1010z"/>
				<path class="st1" d="M662.6,1002.2v11.3c0,1.4,0.2,2.3,0.6,2.8s1.4,0.7,3,0.7c0.7,0,1.6,0,2.5-0.1v5.8c-2.3,0.4-3.9,0.6-4.9,0.6
					c-3.3,0-5.6-0.6-7-1.9c-1.4-1.2-2.1-3.5-2.1-6.8v-12.4h-4.2v-6.1h4.7l0.6-7.8l6.8-0.5v8.4h5.7v6.1H662.6z"/>
				<path class="st1" d="M696.4,1010.7h-17.1c0,0.5,0,0.9,0,1.2c0,1.9,0.5,3.3,1.5,4.3c1,1,2.2,1.5,3.6,1.5c2.6,0,4.2-1.4,4.7-4.2
					l7.1,0.5c-2,6.1-6,9.2-12.1,9.2c-2.6,0-4.9-0.5-6.8-1.6c-1.8-1.1-3.4-2.6-4.6-4.7c-1.2-2-1.8-4.5-1.8-7.3
					c0-4.2,1.2-7.6,3.6-10.2c2.4-2.6,5.5-3.9,9.3-3.9c3.4,0,6.4,1.2,8.8,3.6C695.1,1001.6,696.4,1005.4,696.4,1010.7z M679.2,1006.2
					h9.5c-0.3-3.7-1.8-5.5-4.5-5.5C681.2,1000.7,679.6,1002.5,679.2,1006.2z"/>
				<path class="st1" d="M708.9,1022.7h-7.6v-26.6h7.2v5c1.1-3.7,3-5.5,5.7-5.5c0.4,0,0.9,0,1.4,0.1v7.8c-1.6,0-2.8,0.2-3.7,0.7
					c-0.9,0.5-1.6,1.4-2.2,2.6c-0.6,1.3-0.8,3-0.8,5.2V1022.7z"/>
				<path class="st1" d="M756.7,1022.7h-7.6c-0.2-1.1-0.4-2.4-0.4-4.2c-1.3,1.9-2.7,3.2-4,3.8c-1.3,0.6-2.8,0.9-4.5,0.9
					c-2.5,0-4.5-0.7-6-2c-1.5-1.4-2.3-3.2-2.3-5.5c0-1.7,0.5-3.2,1.3-4.6c0.9-1.4,2.3-2.5,4.3-3.3c2-0.8,5.6-1.4,10.8-1.8v-1.5
					c0-2.6-1.3-3.9-3.9-3.9c-2.7,0-4.3,1.3-4.6,3.9l-7.3-0.7c0.5-3,1.9-5.2,4.3-6.4c2.4-1.3,5.1-1.9,8.1-1.9c1.8,0,3.5,0.2,5.1,0.6
					c1.6,0.4,2.8,1.1,3.7,1.9c0.9,0.8,1.5,1.7,1.8,2.7c0.3,0.9,0.5,2.6,0.5,4.9v12.1C756.3,1020.1,756.4,1021.7,756.7,1022.7z
					 M748.4,1010c-5.5,0.5-8.2,2.2-8.2,5c0,0.9,0.3,1.7,0.9,2.4c0.6,0.7,1.4,1,2.5,1c1.4,0,2.5-0.6,3.5-1.7c0.9-1.2,1.4-2.6,1.4-4.3
					V1010z"/>
				<path class="st1" d="M785.9,1022.7H778v-14.9c0-1.8-0.1-3-0.2-3.7c-0.1-0.7-0.5-1.2-1-1.7c-0.6-0.5-1.2-0.7-2.1-0.7
					c-2.8,0-4.1,2-4.1,6.1v14.9h-7.9v-26.6h7.3v4.5c1.2-2.1,2.4-3.5,3.6-4.1c1.2-0.6,2.4-0.9,3.8-0.9c2.5,0,4.6,0.7,6.1,2
					c1.5,1.4,2.3,4,2.3,8V1022.7z"/>
				<path class="st1" d="M815,986.8v36h-7.3v-4.2c-1.8,3.1-4.2,4.7-7.3,4.7c-2.9,0-5.3-1.2-7-3.6c-1.7-2.4-2.6-5.7-2.6-10
					c0-4.4,0.9-7.9,2.6-10.4c1.7-2.5,4.2-3.8,7.4-3.8c2.8,0,5,1.1,6.5,3.3v-12.1H815z M807.4,1007.2c0-4.2-1.3-6.3-3.8-6.3
					c-3,0-4.5,2.9-4.5,8.8c0,5.3,1.4,7.9,4.3,7.9c1.1,0,2-0.5,2.9-1.4c0.8-0.9,1.2-2.3,1.2-4.1V1007.2z"/>
				<path class="st1" d="M860.2,994.7L853,997c-1-2.8-3-4.3-6.1-4.3c-3.3,0-5,1.1-5,3.2c0,0.9,0.3,1.6,0.9,2.2
					c0.6,0.6,2,1.1,4.2,1.5c3.7,0.7,6.4,1.5,8.1,2.3c1.7,0.8,3.1,2,4.3,3.6c1.2,1.7,1.7,3.6,1.7,5.6c0,3.2-1.2,6.1-3.7,8.4
					c-2.5,2.4-6.2,3.6-11.1,3.6c-3.7,0-6.8-0.8-9.4-2.5c-2.6-1.7-4.3-4.2-5.1-7.5l7.8-1.8c0.9,3.4,3.3,5,7.3,5
					c1.9,0,3.4-0.4,4.3-1.1c0.9-0.8,1.4-1.6,1.4-2.7c0-1.1-0.4-1.9-1.3-2.4c-0.9-0.6-2.5-1.1-5-1.6c-4.6-0.9-7.8-2.3-9.8-3.9
					c-2-1.6-2.9-4-2.9-7.2c0-3.2,1.2-5.9,3.5-8.1c2.3-2.2,5.5-3.3,9.5-3.3C853.7,986.2,858.2,989,860.2,994.7z"/>
				<path class="st1" d="M889.5,1022.7h-7.6c-0.2-1.1-0.4-2.4-0.4-4.2c-1.3,1.9-2.7,3.2-4,3.8c-1.3,0.6-2.8,0.9-4.5,0.9
					c-2.5,0-4.5-0.7-6-2c-1.5-1.4-2.3-3.2-2.3-5.5c0-1.7,0.5-3.2,1.3-4.6c0.9-1.4,2.3-2.5,4.3-3.3c2-0.8,5.6-1.4,10.8-1.8v-1.5
					c0-2.6-1.3-3.9-3.9-3.9c-2.7,0-4.3,1.3-4.6,3.9l-7.3-0.7c0.5-3,1.9-5.2,4.3-6.4c2.4-1.3,5.1-1.9,8.1-1.9c1.8,0,3.5,0.2,5.1,0.6
					c1.6,0.4,2.8,1.1,3.7,1.9c0.9,0.8,1.5,1.7,1.8,2.7c0.3,0.9,0.5,2.6,0.5,4.9v12.1C889.1,1020.1,889.2,1021.7,889.5,1022.7z
					 M881.2,1010c-5.5,0.5-8.2,2.2-8.2,5c0,0.9,0.3,1.7,0.9,2.4c0.6,0.7,1.4,1,2.5,1c1.4,0,2.5-0.6,3.5-1.7c0.9-1.2,1.4-2.6,1.4-4.3
					V1010z"/>
				<path class="st1" d="M918.7,1022.7h-7.9v-14.9c0-1.8-0.1-3-0.2-3.7c-0.1-0.7-0.5-1.2-1-1.7c-0.6-0.5-1.2-0.7-2.1-0.7
					c-2.8,0-4.1,2-4.1,6.1v14.9h-7.9v-26.6h7.3v4.5c1.2-2.1,2.4-3.5,3.6-4.1c1.2-0.6,2.4-0.9,3.8-0.9c2.5,0,4.6,0.7,6.1,2
					c1.5,1.4,2.3,4,2.3,8V1022.7z"/>
				<path class="st1" d="M933,986v7.9h-7.9V986H933z M933,996.1v26.6h-7.9v-26.6H933z"/>
				<path class="st1" d="M948.3,1002.2v11.3c0,1.4,0.2,2.3,0.6,2.8c0.4,0.5,1.4,0.7,3,0.7c0.7,0,1.6,0,2.5-0.1v5.8
					c-2.3,0.4-3.9,0.6-4.9,0.6c-3.3,0-5.6-0.6-7-1.9c-1.4-1.2-2.1-3.5-2.1-6.8v-12.4h-4.2v-6.1h4.7l0.6-7.8l6.8-0.5v8.4h5.7v6.1
					H948.3z"/>
				<path class="st1" d="M982.1,1022.7h-7.6c-0.2-1.1-0.4-2.4-0.4-4.2c-1.3,1.9-2.7,3.2-4,3.8c-1.3,0.6-2.8,0.9-4.5,0.9
					c-2.5,0-4.5-0.7-6-2c-1.5-1.4-2.3-3.2-2.3-5.5c0-1.7,0.5-3.2,1.3-4.6c0.9-1.4,2.3-2.5,4.3-3.3c2-0.8,5.6-1.4,10.8-1.8v-1.5
					c0-2.6-1.3-3.9-3.9-3.9c-2.7,0-4.3,1.3-4.6,3.9l-7.3-0.7c0.5-3,1.9-5.2,4.3-6.4c2.4-1.3,5.1-1.9,8.1-1.9c1.8,0,3.5,0.2,5.1,0.6
					c1.6,0.4,2.8,1.1,3.7,1.9c0.9,0.8,1.5,1.7,1.8,2.7c0.3,0.9,0.5,2.6,0.5,4.9v12.1C981.7,1020.1,981.8,1021.7,982.1,1022.7z
					 M973.8,1010c-5.5,0.5-8.2,2.2-8.2,5c0,0.9,0.3,1.7,0.9,2.4c0.6,0.7,1.4,1,2.5,1c1.4,0,2.5-0.6,3.5-1.7c0.9-1.2,1.4-2.6,1.4-4.3
					V1010z"/>
				<path class="st1" d="M997,1002.2v11.3c0,1.4,0.2,2.3,0.6,2.8s1.4,0.7,3,0.7c0.7,0,1.6,0,2.5-0.1v5.8c-2.3,0.4-3.9,0.6-4.9,0.6
					c-3.3,0-5.6-0.6-7-1.9c-1.4-1.2-2.1-3.5-2.1-6.8v-12.4h-4.2v-6.1h4.7l0.6-7.8l6.8-0.5v8.4h5.7v6.1H997z"/>
				<path class="st1" d="M1015,986v7.9h-7.9V986H1015z M1015,996.1v26.6h-7.9v-26.6H1015z"/>
				<path class="st1" d="M1032.5,995.5c4.1,0,7.2,1.3,9.5,4c2.3,2.7,3.4,6,3.4,10c0,3.9-1.2,7.2-3.5,9.9c-2.4,2.6-5.5,3.9-9.4,3.9
					c-3.8,0-6.8-1.3-9.1-3.9c-2.3-2.6-3.4-5.9-3.4-10c0-2.8,0.5-5.2,1.5-7.2c1-2,2.4-3.6,4.2-4.8
					C1027.5,996.2,1029.7,995.5,1032.5,995.5z M1032.7,1000.7c-1.5,0-2.6,0.6-3.4,1.7c-0.8,1.2-1.1,3.4-1.1,6.9
					c0,3.2,0.4,5.4,1.1,6.8c0.7,1.4,1.8,2.1,3.3,2.1c1.3,0,2.4-0.6,3.2-1.8c0.8-1.2,1.2-3.4,1.2-6.7c0-3.5-0.4-5.9-1.1-7.1
					C1035.3,1001.3,1034.2,1000.7,1032.7,1000.7z"/>
				<path class="st1" d="M1073.4,1022.7h-7.9v-14.9c0-1.8-0.1-3-0.2-3.7c-0.1-0.7-0.5-1.2-1-1.7c-0.6-0.5-1.2-0.7-2.1-0.7
					c-2.8,0-4.1,2-4.1,6.1v14.9h-7.9v-26.6h7.3v4.5c1.2-2.1,2.4-3.5,3.6-4.1c1.2-0.6,2.4-0.9,3.8-0.9c2.5,0,4.6,0.7,6.1,2
					c1.5,1.4,2.3,4,2.3,8V1022.7z"/>
			</g>
		</g>
	</g>
</g>
<g>
</g>
<g>
</g>
<g>
</g>
<g>
</g>
<g>
</g>
<g>
</g>
</svg>
