<svg xmlns="http://www.w3.org/2000/svg" height="800" width="1200" viewBox="-54.75 -68.082 474.5 408.492"><path fill="#fff" d="M139.793 34.247l4.527-2.303a80.696 80.696 0 0120.488-6.353l.636-.08.158-.635c.715-2.7 1.589-5.32 2.621-7.862A38.156 38.156 0 01179.262 2.72c3.017-2.541 3.256-2.541 6.75 0a38.156 38.156 0 0111.038 14.294c1.033 2.542 1.906 5.162 2.541 7.862l.16.636.635.079a80.696 80.696 0 0120.488 6.353l4.844 2.382.318-.079c22.156-5.718 44.233-5.956 63.769-.794 29.065 7.782 52.016 27.477 64.484 55.59 17.55 39.23 13.103 95.613-24.619 122.058-19.456 13.659-34.862 17.788-56.7 15.406l-.715-.08-.239.636c-9.847 23.585-32.956 28.747-53.842 31.686l-3.573.476c-10.88 1.43-14.771 2.303-19.06 6.591-3.812 3.812-8.02 5.56-12.865 5.56v-.002c-4.844 0-9.053-1.826-12.865-5.559-4.288-4.288-8.18-5.161-19.059-6.59l-3.653-.477c-20.886-2.939-43.995-8.1-53.842-31.686l-.238-.636-.715.08c-21.839 2.462-37.245-1.747-56.78-15.406-37.722-26.445-42.17-82.829-24.619-122.059C23.453 61.01 46.324 41.235 75.39 33.452c19.536-5.161 41.533-4.923 63.769.795l.317.08z"/><path fill="#006b35" d="M182.518 272.328c-5.321 0-9.768-2.064-13.5-5.876-4.13-4.05-7.863-4.924-18.504-6.274l-3.653-.476c-21.68-3.098-44.71-8.657-54.557-32.242-22.395 2.54-38.198-2.065-57.416-15.486C-3.23 185.291-7.757 128.352 9.952 88.724c12.627-28.35 35.736-48.283 65.12-56.065 20.011-5.32 42.247-4.924 64.245.794l4.447-2.303c6.591-3.097 13.58-5.241 20.806-6.433.715-2.7 1.588-5.32 2.62-7.94a38.248 38.248 0 0111.357-14.692c3.335-2.78 4.05-2.78 7.862 0 1.032.714 7.941 6.432 11.356 14.691a71.45 71.45 0 012.62 7.941c7.148 1.192 14.216 3.415 20.807 6.512l4.526 2.303c21.998-5.717 44.234-6.115 64.246-.794 29.383 7.862 52.492 27.795 65.119 56.066 17.63 39.548 13.182 96.487-24.936 123.25-19.218 13.42-35.021 18.026-57.416 15.485-9.847 23.586-32.798 29.145-54.557 32.242l-3.653.476c-10.641 1.43-14.453 2.224-18.503 6.274-3.733 3.733-8.1 5.797-13.5 5.797"/><path fill="#e6b00f" d="M182.597 60.374c-33.592-21.68-73.537-29.462-106.335-20.727-27.635 7.386-48.6 25.412-60.513 52.175-16.518 36.927-12.547 89.896 22.554 114.514 19.297 13.5 34.306 17.312 58.051 13.58 7.227 24.538 28.033 29.78 50.825 33.035l3.573.477c11.118 1.509 16.677 2.462 22.554 8.338a13.133 13.133 0 0018.503 0c5.797-5.876 11.435-6.83 22.553-8.338l3.574-.477c22.712-3.256 43.598-8.497 50.824-33.036 23.745 3.812 38.754 0 58.052-13.58 35.1-24.617 39.071-77.586 22.553-114.593-11.912-26.683-32.877-44.71-60.513-52.095-32.798-8.735-72.743-.953-106.255 20.727"/><path fill="#e6b00f" d="M152.579 34.644l-3.177 1.588c-.08.239-.08.239 3.415 1.51a132.999 132.999 0 0124.618 11.355l3.177 1.827c.238-.08.238-.08-.715-3.733-.08-.397-2.462-8.973-6.512-12.23-1.191-1.032-3.415-2.938-8.259-3.176-4.368-.159-8.656.874-12.547 2.86zm59.877 0l3.177 1.588c.08.239.08.239-3.335 1.51a132.999 132.999 0 00-24.619 11.355l-3.176 1.827c-.318-.08-.318-.08.715-3.733.079-.397 2.54-8.973 6.511-12.23 1.192-1.032 3.415-2.938 8.26-3.176 4.288-.159 8.656.794 12.467 2.86zm-29.859 6.671c0-1.27 2.224-4.765 4.606-7.942 2.382-3.176 5.718-9.132 4.288-15.167-1.43-6.036-8.894-11.198-8.894-11.198s-7.465 5.162-8.894 11.198c-1.43 6.035 1.826 12.07 4.209 15.247 2.382 3.176 4.685 6.591 4.685 7.862z"/><path stroke-width="1.842" stroke="#fff200" fill="#fff200" d="M182.597 64.504C149.323 42.268 110.49 34.168 77.454 42.982 50.69 50.13 30.44 67.442 19.005 93.092 3.123 128.75 6.696 179.812 40.368 203.397c19.218 13.5 34.068 16.836 58.607 12.468 5.797 25.174 25.57 30.257 48.68 33.513l3.574.476c10.244 1.35 17.63 2.383 24.538 9.292 1.747 1.747 4.21 2.78 6.75 2.78 2.542 0 4.924-.954 6.75-2.78 6.91-6.989 14.295-7.942 24.54-9.292l3.573-.476c23.189-3.256 42.883-8.339 48.76-33.513 24.539 4.448 39.389 1.033 58.607-12.468 33.671-23.585 37.324-74.569 21.362-110.305-11.435-25.65-31.606-42.962-58.448-50.11-32.957-8.814-71.71-.714-105.064 21.522"/><path fill="#e6b00f" d="M182.518 74.113c-32.401-23.269-70.837-32.004-103-23.427C55.06 57.197 36.635 73 26.153 96.507c-14.295 32.162-11.277 79.89 18.741 100.934 17.63 12.31 30.177 16.439 60.513 9.61 2.383 24.935 15.565 31.05 43.519 35.02l3.414.477c10.8 1.43 20.092 2.7 28.907 11.515.318.318.794.556 1.27.477.477 0 .953-.16 1.271-.477 8.815-8.815 18.106-10.006 28.907-11.515l3.494-.476c28.033-3.97 41.136-10.086 43.518-35.022 30.257 6.83 42.884 2.7 60.513-9.609 30.019-21.044 33.116-68.772 18.742-100.934-10.483-23.506-28.907-39.31-53.366-45.9-32.162-8.498-70.598.237-103.078 23.506"/><path stroke-width=".929" stroke="#fff200" fill="#fff200" d="M154.405 36.074c8.021 2.858 15.803 6.432 23.189 10.72-.635-2.144-2.7-7.941-5.559-10.323-1.112-.953-2.938-2.462-7.068-2.7-3.573-.08-7.226.714-10.562 2.303zm56.225 0c-8.02 2.858-15.803 6.432-23.189 10.72.715-2.144 2.7-7.941 5.56-10.323 1.905-1.748 4.446-2.7 7.067-2.7 3.653-.08 7.306.714 10.562 2.303zm-35.021-17.392c-.239.874-.318 1.747-.318 2.62 0 4.924 3.097 9.45 4.209 10.88 1.35 1.747 2.303 3.177 3.097 4.368.794-1.27 1.747-2.7 3.018-4.368 1.111-1.43 4.209-5.956 4.209-10.88 0-.873-.08-1.746-.318-2.62-.953-3.891-4.924-7.465-6.91-9.133-2.064 1.589-6.034 5.242-6.987 9.133z"/><path fill="#fff" d="M182.518 249.219c-9.45-8.338-19.616-9.688-29.542-11.038l-3.415-.477c-26.842-3.812-38.277-9.212-39.945-32.957a3.037 3.037 0 00-1.032-1.985 2.821 2.821 0 00-2.224-.476c-10.324 2.461-18.424 3.573-25.412 3.573-13.5 0-22.554-4.447-33.513-12.07-28.191-19.774-30.891-64.96-17.232-95.455C40.129 76.098 57.6 61.089 80.63 54.974c7.942-2.065 16.121-3.177 24.3-3.097 25.572 0 52.572 9.45 76 26.524.476.317 1.032.476 1.588.556.555 0 1.111-.16 1.588-.556 23.427-17.074 50.427-26.524 75.998-26.524a96.64 96.64 0 0124.3 3.097c23.11 6.194 40.581 21.203 50.428 43.36 13.66 30.494 10.88 75.76-17.312 95.454-10.959 7.624-19.933 12.071-33.433 12.071-6.988 0-15.009-1.112-25.412-3.573-1.43-.397-2.859.476-3.256 1.906-.08.158-.08.317-.08.476-1.588 23.745-13.103 29.145-39.944 32.957l-3.256.556c-9.927 1.27-20.171 2.7-29.621 11.038z"/><path fill="#d9272d" d="M182.518 250.49c-9.292-8.577-19.219-9.927-29.701-11.357l-3.415-.476c-27.318-3.891-39.071-9.45-40.739-33.83 0-.477-.318-.953-.715-1.27-.397-.318-.953-.398-1.508-.318-30.495 7.147-42.566 3.256-59.64-8.656-28.589-20.013-31.368-65.755-17.55-96.646C39.335 75.463 57.044 60.295 80.392 54.02c31.527-8.418 69.328.397 101.093 23.586.318.238.635.317 1.033.317.397 0 .714-.079 1.032-.317 31.845-23.189 69.566-32.004 101.093-23.586 23.427 6.274 41.057 21.442 51.063 43.916 13.818 30.891 10.959 76.633-17.55 96.646-17.074 11.912-29.145 15.803-59.64 8.656-.476-.08-1.032 0-1.43.317-.396.318-.635.794-.714 1.27-1.668 24.38-13.341 29.94-40.74 33.831l-3.414.476c-10.482 1.35-20.41 2.78-29.7 11.357z"/><g fill="#fffde9"><path d="M171.558 190.77l-2.779.715-.476 2.145-1.35 4.685c-1.033 2.78-4.05 6.194-6.195 7.783l-1.43.476s-.079-.159-.079-.556l.239-1.906 2.144-10.085c.317-1.43.238-2.303-.08-2.78-.238-.238-.555-.397-.873-.397-.556 0-1.43.238-5.083 2.859l-1.27.874.476 1.429 1.668-1.112 1.43-.714c.317 0 .317.317.317.397l-.318 1.508-2.064 10.086-.16 1.985c0 .874.716 1.668 1.59 1.747 2.143 0 4.764-2.54 6.193-4.05 1.112-1.27 2.065-2.54 3.018-3.891-.318 1.27-.874 3.018-.874 3.018l-.079.317-.397 2.621c0 1.668 1.112 1.827 1.509 1.827l2.065-.795 4.288-3.017-.159-.318-.556-1.032-1.27.873a5.417 5.417 0 01-2.065.953c-.08 0-.159-.238-.159-.238l.159-1.27c0-.16 3.176-13.5 3.176-13.5l.08-.16-.08-.159-.397-.555zm17.551.08l-1.112.635a9.37 9.37 0 00-2.938-.714c-1.986 0-3.018.476-5.877 2.462-2.382 1.667-4.685 9.53-4.685 13.103 0 .556.08 3.494 1.667 3.494.556 0 1.271-.159 3.098-1.509 1.826-1.509 3.414-3.335 4.844-5.241-.318 1.35-.715 3.097-.715 3.097l-.238 2.065c0 1.43.873 1.588 1.35 1.588 1.112 0 3.653-1.985 5.638-3.574l.159-.158-.476-1.51-.874.715c-.794.636-1.509 1.271-2.065 1.271h-.08c-.079-.238-.158-.556-.079-.794l3.495-14.295-.715-.635zm-11.277 14.295c0-2.224 1.033-5.956 1.985-8.498.874-2.303 1.51-3.335 3.574-3.335.953.08 1.827.238 2.7.635-.953 4.844-2.144 6.83-3.335 8.418-1.588 2.065-3.574 4.209-4.606 4.209-.08-.08-.318-.08-.318-1.43zm21.68-23.665l-2.859 1.111-3.256.477-.08.238-.237 1.191h2.223c.794 0 .874.159.874.477l-.08.476-.08.397c-.237 2.065-2.223 12.865-3.176 16.28-.953 3.573-1.27 4.844-1.27 5.797 0 1.668 1.032 1.827 1.509 1.827l2.064-.795 4.13-2.858.08-.398-.557-1.032-1.27.874c-1.51.953-1.986 1.032-2.065 1.032a.607.607 0 01-.159-.397l.159-.953 4.924-23.268-.795-.715zm6.75 3.494c-.08.953.556 1.826 1.509 1.985h.318c1.35 0 2.382-1.27 2.382-2.938 0-.953-.715-1.747-1.668-1.747-1.43.079-2.461 1.27-2.54 2.7zm1.27 5.797c-.635 0-1.429.238-5.161 2.859l-1.27.953.555 1.429 1.43-.953.635-.397 1.032-.556c.318 0 .318.477.318.477l-.318 1.508-2.462 8.895-.476 2.938c0 1.668 1.032 1.827 1.509 1.827l2.065-.795 4.367-3.017-.159-.318-.555-.953-1.271.874c-.635.476-1.35.873-2.065 1.032a.607.607 0 01-.159-.397l.239-1.35 2.859-11.356c.317-1.27.317-1.906-.08-2.383a1.174 1.174 0 00-1.032-.317zm11.595-6.036l-3.018 1.43-.079.238s-.953 6.274-.953 6.353c0-.159-3.018 1.112-3.018 1.112l-.159.08-.079.238-.159.873h3.177c-.16.794-1.986 10.086-1.986 10.086l-.158.794-.318 2.144c0 1.668 1.032 1.826 1.509 1.826l2.065-.556 3.573-2.54 1.43-1.192-.715-1.27-1.985 1.429c-1.35.873-1.827 1.032-2.065 1.032s-.159-.238-.159-.397l.159-1.35c0-.08 1.588-8.576 1.906-10.006h3.97l.556-2.62-4.05.238c.318-2.303.874-4.606 1.588-6.83l.08-.159-.715-.953zm21.601 6.035l-2.86.715-.079.239-.635 2.462-.635 2.461c-.715 2.224-1.668 4.289-2.939 6.195-1.509 2.223-3.176 3.414-3.573 3.414h-.08c-.317-.556-.397-1.19-.317-1.826l.556-7.227c.317-4.368.158-5.559-.398-6.035l-.794-.318c-.635 0-1.032.238-3.017 1.588l-3.336 2.303.794 1.271 2.065-1.27c.238-.16.794-.398.794-.398l.16.08c.079.08.317.556.317 2.065l-.636 9.053v1.906c0 1.27.715 2.62 2.065 2.62s3.177-1.985 4.13-3.176l2.144-2.78-1.27 4.527c-.557 1.906-1.192 3.732-2.065 5.559-1.192 2.382-2.462 3.494-3.971 3.494a1.956 1.956 0 01-1.509-.715c-.397-.556-.556-1.35-.397-2.065l.08-.317-.795-.318-1.985 1.35c-.318 1.033-.08 2.224.635 3.097.635.794 1.668 1.191 2.62 1.191 2.304 0 4.527-1.35 6.751-4.208a23.322 23.322 0 003.812-7.545l5.32-16.597-.794-.635zm-114.991-2.938c-1.112 2.303-1.906 4.845-2.224 7.465h-.079l-.08.715c0 .477-.079 1.032-.079 1.668 0 3.812 1.191 8.973 7.068 11.118 6.83 2.54 16.915-.16 20.965-8.26 2.859-5.717 3.494-11.117 1.906-15.247-1.191-2.859-3.574-5.162-6.512-6.115-8.1-2.938-17.233.795-20.965 8.656zm2.938 3.653c1.43-5.717 5.083-12.15 14.136-10.403 2.065.318 3.891 1.51 5.082 3.256 1.747 2.7 2.065 6.989.794 12.389-2.064 8.815-8.497 11.674-13.976 10.482-5.48-1.19-6.91-5.48-6.91-9.53 0-.635 0-1.27.08-1.905z"/><path d="M131.455 213.006l-.238.398a1.178 1.178 0 000 1.032.873.873 0 00.794.476h.238l.238-.317c1.43-3.018 3.653-3.97 6.91-3.097l10.243 3.573 2.224.794c2.382.795 10.244 3.256 12.388-.635l1.35-2.78c.556-.635.16-2.144.08-2.302a.873.873 0 00-.794-.477c-.318.08-.636.318-.715.635.08 1.271-.159 1.986-.635 2.542-.794.794-2.383 1.19-5.003 1.111a22.36 22.36 0 01-7.545-1.826l-3.732-1.191-.556-.16c-2.7-.873-5.48-1.587-8.259-2.064-4.368-.476-6.115 2.7-6.988 4.288z"/></g><path d="M106.598 109.134v12.865c-.873-1.51-2.461-4.05-2.461-4.05l-.398-.556c-1.826-2.7-6.035-6.67-13.182-3.415-4.13 1.906-8.577 4.288-10.165 5.162-3.891 2.223-5.241 4.209-5.797 6.67v-1.588c0-6.67-2.065-12.23-5.956-16.041-3.891-3.812-9.45-5.877-16.121-5.797-7.227.159-14.136 1.032-16.915 1.906l-1.509.476-6.433 19.536 6.115-1.906c4.05-1.35 8.1-2.541 12.31-3.415l-9.213 4.447v30.257c0 2.78-2.223 6.115-4.288 8.259l-4.765 5.003h25.73c8.815 0 19.139-3.097 20.886-17.074 0 .715.08 1.27.08 1.588.476 5.003 2.54 8.418 6.352 10.642l.715.476c2.144 1.27 4.606 2.78 14.453 5.718l2.145.635 9.053-13.738c.714 3.176 2.62 5.956 5.241 7.861 2.462 1.748 5.162 3.256 7.862 4.527l2.303 1.112 9.53-14.374-3.733-1.985c-2.7-1.43-3.732-1.986-3.732-4.924v-46.298zm-2.62 43.598c-5.4-1.27-6.115-1.589-8.656-2.541l-.397-.16c-1.51-.555-2.303-1.032-2.7-1.746 4.526-3.415 8.814-7.148 12.706-11.198a11.076 11.076 0 001.667-2.144v14.453c0 1.271.08 2.621.318 3.892zm170.421-39.786h-2.065v1.43h-6.432v3.652c-1.271-1.27-2.621-2.462-4.05-3.494-2.383-1.747-4.686-3.018-9.848-.477l-4.447 2.303c-1.43-1.27-2.938-2.303-4.685-3.097l-1.668-.714-1.35 1.111-8.656 7.068a8.355 8.355 0 00-2.303-2.7c-1.747-1.43-3.574-2.78-5.48-3.97-3.732-2.383-6.83-2.383-11.991-.08l-8.1 3.891c-3.494 1.827-6.83 4.289-6.83 9.53v24.856c-.953-.714-1.43-1.588-1.43-3.494v-33.195c0-3.653-.237-4.606-2.7-7.385-1.587-1.588-3.335-3.018-5.32-4.05-4.526-2.78-8.497-1.51-11.674.08l-3.89 1.985c-1.113-.795-2.145-1.43-3.257-2.145-3.494-2.064-7.147-1.906-11.277.397 0 0-3.573 2.065-4.13 2.383-2.064-1.43-4.287-2.62-6.67-3.494l-1.588-.636-14.692 12.071 8.657 4.368.794.476c0 .397.08 1.112.08 1.906v45.98h37.244v-14.93c0 6.116 2.62 8.578 4.288 10.166l2.78 2.382.794.556c1.27 1.032 2.7 1.906 4.13 2.62l2.064.954 8.339-9.61c.794.954 1.747 1.827 2.779 2.621l.397.318c1.906 1.43 4.05 2.7 6.194 3.732 5.083 2.7 8.656.795 11.992-.953a64.081 64.081 0 007.306-4.764c1.906-1.51 4.765-3.733 4.765-9.53v-23.427l.635.477.635.555c.159.715.159 1.35.159 2.065v36.61h17.868v-8.1a7.4 7.4 0 002.303 3.653l2.78 2.382.952.715 5.798 4.05 1.588-2.144 8.497-9.768c1.509 3.097 4.209 5.162 7.068 6.909.159.08 6.432 3.415 6.432 3.415l2.383 1.27 7.941-11.912a11.668 11.668 0 004.288 4.05l.715.397c2.144 1.35 4.606 2.78 14.533 5.798l2.065.635 9.926-15.089-4.13-.953c-5.4-1.27-6.114-1.509-8.655-2.54l-.397-.16c-1.51-.556-2.303-1.032-2.7-1.747a106.025 106.025 0 0012.626-11.197c2.86-3.097 3.891-6.036 3.891-8.656 0-1.985-.555-3.891-1.508-5.56-.953-1.905-2.145-3.732-3.415-5.479l-.159-.158c-1.826-2.621-6.035-6.671-13.183-3.415-4.13 1.826-8.576 4.209-10.085 5.162-1.43.794-2.7 1.747-3.891 2.859v-7.148h-7.148v-11.912zm-3.018 40.66c-2.462-1.43-2.462-1.43-2.462-4.05v-20.251h3.336v22.95c0 .636.079 1.35.158 1.986zm18.98-5.321v-19.06h4.924l.079 21.6v.16c.08.714.159 1.43.318 2.144-4.924-2.224-5.321-2.62-5.321-4.844z" opacity=".7"/><path fill="#fff" d="M34.332 160.99l3.256-3.414c1.588-1.668 4.527-4.844 4.527-8.259v-29.7l6.909-3.177-.556-1.747c-4.13.873-8.895 2.144-10.483 2.62l-3.732 1.112 5.718-17.233 1.032-.317c2.78-.794 9.53-1.747 16.677-1.827h.476c6.194 0 11.436 1.906 15.089 5.48 3.653 3.573 5.638 8.974 5.638 15.406v21.442c0 19.535-14.691 19.535-20.17 19.535zm23.824-14.69l1.033-.08c.873 0 1.747-.318 2.382-.874.715-.714 1.112-1.985 1.112-3.891V120.49c0-2.462-.636-4.209-1.747-5.241a5.063 5.063 0 00-1.112-.636l-1.588-.714zm43.28 16.676c-9.767-2.938-12.15-4.368-14.294-5.638-.397-.239-.635-.397-.794-.477-3.574-2.065-5.4-5.241-5.877-9.847-.158-1.747-.476-8.815-.476-14.93v-.953h-.08l.16-2.223v-2.144l.158-.715c.08-1.27.159-2.541.159-3.018.397-2.938 1.35-4.923 5.638-7.385 1.35-.794 5.797-3.177 10.086-5.083 1.509-.714 3.097-1.112 4.765-1.112 3.653 0 5.956 2.303 7.306 4.21l.397.555 3.097 5.083a10.129 10.129 0 011.35 5.082c0 2.7-1.191 5.4-3.574 7.942-3.891 4.05-8.1 7.782-12.547 11.117l-.635.477.397.715c.556 1.032 1.588 1.588 3.176 2.144l.318.159c2.541.953 3.256 1.27 8.815 2.54l2.859.716-8.895 13.341z"/><path fill="#fff" d="M125.896 162.976c-2.7-1.27-5.241-2.7-7.703-4.447-3.892-2.859-5.48-6.512-5.48-12.627v-41.136l16.2-7.385v46.218c0 3.494 1.51 4.289 4.289 5.797l2.859 1.51-8.577 12.864zm68.136-.079a22.041 22.041 0 01-4.05-2.621l-.873-.635s-2.303-1.986-2.541-2.224a11.782 11.782 0 01-3.892-8.18l-1.906.08v11.515h-35.418v-43.916c0-.794 0-1.509-.08-1.985l-.079-.476-1.27-.715-.794-.397-6.512-3.256 13.182-10.8 1.112.397a30.002 30.002 0 016.512 3.414l.476.318.477-.318c.556-.317 4.13-2.382 4.13-2.382 1.746-1.112 3.732-1.668 5.717-1.747 1.588 0 3.177.476 4.606 1.35 1.112.635 2.144 1.35 3.256 2.065l.477.317 4.447-2.223a13.134 13.134 0 015.717-1.589c1.827 0 3.574.556 5.083 1.51 1.906 1.032 3.574 2.382 5.082 3.89 2.303 2.542 2.462 3.257 2.462 6.75v33.196c0 3.414 1.509 4.208 3.494 5.24l3.177 1.748-10.562 12.388zm27.16-13.58c-.238-.08-.477-.159-.715-.318l-.635-.476a8.018 8.018 0 01-1.27-1.033l-.318-.317c-.477-.318-.636-.794-.556-1.35V123.19c0-.477.238-.874.714-1.112.239-.159.477-.238.715-.317.159 0 .477.317.953.714l.397.318c.715.397 1.112 1.191 1.112 2.065v23.427c-.08.317-.159.714-.397 1.032z"/><path fill="#fff" d="M218.412 162.261c-1.588 0-3.097-.476-4.526-1.27a38.682 38.682 0 01-5.956-3.653l-.556-.397c-4.288-3.097-4.844-6.274-4.844-8.895V123.27c0-4.447 2.54-6.67 6.353-8.656l7.544-3.653.556-.238a16.33 16.33 0 016.035-1.668c1.827.08 3.574.636 5.003 1.668 1.906 1.191 3.733 2.462 5.4 3.891 3.177 2.621 3.177 5.083 3.177 9.133v22.792c0 5.32-2.541 7.306-4.368 8.735-2.303 1.747-4.685 3.335-7.226 4.685-2.144 1.192-4.13 2.303-6.592 2.303zm103.952.318c-9.847-2.938-12.23-4.368-14.294-5.638l-.08-.08-.635-.397c-3.573-2.065-5.48-5.241-5.876-9.847-.16-1.668-.397-8.577-.397-14.771v-1.27h-.08l.08-2.145v-2.223l.08-.636.158-3.176c.397-2.7 1.35-4.765 5.638-7.147 1.43-.874 5.877-3.256 10.006-5.083 1.51-.715 3.097-1.112 4.686-1.112 3.017.08 5.718 1.668 7.306 4.21l.238.396 3.177 5.242a11.657 11.657 0 011.429 5.082c0 2.7-1.191 5.4-3.574 7.941-3.811 4.05-8.02 7.704-12.468 11.039l-.635.476.397.715c.477.874 1.43 1.43 2.78 1.985l.714.318c2.621.953 3.336 1.27 8.815 2.541l2.78.715-8.815 13.42z"/><path fill="#fff" d="M263.52 160.752l-.874-.714-2.86-2.462c-.952-.953-1.588-2.065-1.985-3.256l-1.826.318v6.353h-16.042v-34.863c0-.794 0-1.588-.158-2.303l-.08-.238-.159-.159c-.08-.08-.714-.635-.714-.635l-.397-.318-4.289-2.859 12.389-10.165 1.111.477c1.589.715 3.098 1.747 4.368 2.938l.477.397 5.003-2.62c1.43-.794 3.017-1.192 4.606-1.27 1.588 0 2.78.634 4.209 1.746 1.588 1.112 3.097 2.383 4.367 3.812 2.224 2.462 2.383 4.288 2.383 6.988v23.348c0 2.938.159 3.256 2.938 4.924l2.859 1.667-9.53 10.88-1.111 1.509z"/><path fill="#fff" d="M286.31 159.64c-4.764-2.858-7.94-5.876-7.94-11.752v-23.904h-6.433V111.04h6.432v-5.003l16.2-7.703v12.706h7.148v12.944h-7.147v20.012c0 2.86 1.032 3.494 6.035 5.718l2.383 1.112-8.656 13.103z"/><path fill="#006b35" d="M57.6 98.175c-7.226.159-14.056 1.032-16.915 1.826l-1.509.397-6.353 19.457 5.48-1.668c1.43-.477 6.194-1.747 10.403-2.62-2.859 1.27-7.465 3.414-7.465 3.414v30.336c0 3.097-2.78 6.035-4.288 7.624l-4.686 5.082h26.445c5.241 0 21.124 0 21.124-20.489v-21.441c0-6.67-2.065-12.23-5.956-16.121-3.891-3.891-9.53-5.956-16.28-5.797zm1.589 17.232v-.079c.397.159.794.318 1.111.556.953.873 1.51 2.462 1.51 4.606v20.965c0 1.588-.318 2.78-.795 3.256-.476.397-1.112.635-1.747.556-.159-5.003-.08-29.78-.08-29.86z"/><path fill="#006b35" d="M95.719 109.69c-4.368 1.985-8.895 4.447-10.086 5.162-4.526 2.62-5.718 4.923-6.115 7.94l-.158 3.177h-.16l-.079 2.86-.158 3.176h.158v.08c0 6.194.239 13.182.477 15.008.476 5.003 2.541 8.418 6.353 10.642l.715.397c2.144 1.27 4.606 2.78 14.532 5.718l2.144.635 10.006-15.089-4.129-1.032c-5.48-1.27-6.194-1.588-8.656-2.541l-.318-.159c-1.509-.556-2.303-1.032-2.7-1.747a106.025 106.025 0 0012.627-11.197c2.859-3.098 3.891-6.036 3.891-8.577 0-1.985-.556-3.891-1.509-5.559l-3.176-5.162-.397-.556c-1.906-2.462-6.115-6.432-13.262-3.176z"/><path fill="#006b35" d="M125.658 97.778l-13.898 6.353v41.771c0 6.433 1.668 10.324 5.877 13.342 2.462 1.747 5.162 3.256 7.862 4.526l2.303 1.112 9.53-14.374-3.733-2.065c-2.7-1.429-3.733-1.985-3.733-4.923V95.872zm54.795 1.985l-3.97 1.985c-1.113-.794-2.145-1.43-3.257-2.144-3.494-2.065-7.147-1.906-11.277.397 0 0-3.653 2.065-4.129 2.383-2.065-1.51-4.288-2.621-6.67-3.495l-1.589-.555-14.612 12.07 7.862 3.892.794.397.794.476c0 .477.08 1.112.08 1.906v44.79h37.324v-12.469a12.605 12.605 0 003.97 8.577l.16.159 2.779 2.382.714.556c1.271 1.033 2.7 1.906 4.21 2.7l2.064.953 11.753-13.58-4.209-2.303c-1.985-1.111-3.017-1.588-3.017-4.447V111.2c0-3.653-.239-4.686-2.7-7.386-1.589-1.588-3.336-3.018-5.321-4.13-4.606-2.7-8.497-1.508-11.753.08zm36.292 23.427c0-.794.476-1.588 1.19-1.906 1.51-.873 1.827-.318 3.098.794.874.635 1.43 1.668 1.35 2.7v23.427c0 1.43-.715 2.78-2.462 1.509-.714-.476-1.43-.953-1.985-1.588-.715-.715-1.191-.874-1.191-2.303z"/><path fill="#006b35" d="M216.586 109.849l-.556.238-7.544 3.653c-3.574 1.826-6.83 4.288-6.83 9.53v24.775c0 2.7.556 6.274 5.241 9.689l.477.397c1.906 1.43 3.97 2.7 6.115 3.732 5.082 2.7 8.576.794 11.991-1.032 2.541-1.35 5.003-3.018 7.386-4.765 1.906-1.509 4.685-3.732 4.685-9.53v-22.791c0-4.13 0-6.91-3.494-9.847a54.41 54.41 0 00-5.56-3.971c-3.652-2.382-6.75-2.382-11.911-.08zm100.061-.556c-4.289 1.906-8.736 4.367-10.165 5.162-4.527 2.54-5.639 4.844-6.036 7.94l-.158 3.177h-.08v2.939l-.159 3.176h.16v.318c0 6.274.237 13.182.396 14.85.477 5.003 2.541 8.339 6.353 10.562l.715.397c2.144 1.35 4.606 2.78 14.533 5.797l2.144.636 9.926-15.089-4.129-.953c-5.4-1.27-6.115-1.509-8.735-2.541l-.398-.159c-1.508-.556-2.303-1.032-2.7-1.747 4.527-3.335 8.815-7.147 12.707-11.197 2.858-3.097 3.89-6.036 3.89-8.577 0-1.985-.555-3.891-1.508-5.559l-3.256-5.241-.318-.397c-1.826-2.78-6.035-6.75-13.182-3.494z"/><path fill="#006b35" d="M245.016 109.451l-12.389 10.245 4.686 3.176.873.636s.636.476.636.556c.158.714.158 1.35.158 2.064v35.736h17.868v-7.226c.398 1.43 1.192 2.7 2.303 3.732l2.86 2.462.952.715 5.639 3.97 1.588-2.144 10.244-11.753-3.891-2.224c-2.462-1.508-2.462-1.508-2.462-4.13V121.84c0-2.938-.159-4.924-2.62-7.624-1.35-1.509-2.86-2.78-4.527-3.97-2.382-1.747-4.685-2.939-9.847-.477l-4.447 2.303c-1.43-1.27-2.939-2.303-4.686-3.097l-1.668-.715z"/><path fill="#006b35" d="M291.234 98.89l-13.897 6.59v4.686h-6.432v14.85h6.432v22.95c0 6.672 4.05 10.007 8.418 12.548l6.432 3.415 2.383 1.27 9.768-14.69-3.336-1.51c-5.082-2.303-5.559-2.7-5.559-4.923v-19.06h7.148v-14.85h-7.148V96.904z"/><path fill="#fff" d="M56.17 115.407l-11.99 5.48v28.43c0 4.209-3.256 7.703-5.083 9.609h19.536c8.894 0 18.106-2.224 18.106-17.471v-21.442c0-12.944-8.1-18.98-19.139-18.82-6.988.079-13.58 1.032-16.12 1.747l-4.05 12.388c.555-.318 11.753-3.415 16.517-3.494.874 0 10.8-1.906 10.8 8.656v20.965c0 7.783-5.558 6.83-8.576 6.83zm25.969 13.501c.08-2.303.159-4.368.318-5.718.238-1.906.635-3.494 4.606-5.718 1.27-.715 5.717-3.097 9.768-4.923 1.35-.636 6.035-2.939 9.688 2.303 1.27 1.747 2.382 3.494 3.335 5.4 2.86 5.162-.317 8.973-1.906 10.72-4.209 4.448-8.814 8.418-13.818 11.992 0 4.13 3.495 5.241 5.242 5.876 2.7 1.033 3.653 1.35 9.053 2.621l-6.433 9.689c-10.72-3.256-12.309-4.606-14.612-5.877-2.78-1.588-4.447-3.97-4.923-8.338-.08-1.906-.397-11.118-.318-18.027m11.594 8.497a44.283 44.283 0 004.845-4.606c3.414-3.732-.795-9.927-2.145-11.277-1.429-1.509-2.7-.873-2.7 1.033zm33.195-36.927l-12.15 5.559v39.865c0 5.56 1.27 8.497 4.606 10.96 2.382 1.588 4.844 3.017 7.385 4.208l6.353-9.53c-3.256-1.747-6.194-2.779-6.194-8.02zm39.151 58.448h12.468v-45.504s1.27-.794 2.303-1.35c1.509-.794 3.97-.238 3.97 2.62v33.354c0 4.845 1.827 6.671 3.256 8.1.795.715 1.589 1.43 2.383 1.986 1.43 1.112 2.938 2.144 4.526 2.938l7.862-9.053c-2.382-1.43-5.559-2.303-5.559-7.624V111.2c0-3.098-.079-3.336-1.985-5.4-1.35-1.43-2.938-2.621-4.606-3.574-2.938-1.747-5.4-1.509-8.894.159-1.747.873-4.05 2.064-5.56 2.78a45.46 45.46 0 00-4.526-3.098c-1.509-.874-4.05-1.985-8.259.477-2.54 1.429-3.812 2.223-5.797 3.335-2.303-1.827-4.844-3.256-7.544-4.209l-9.847 8.1s1.826.874 3.732 1.827c3.256 1.667 3.256 1.27 3.256 5.559v41.692h12.468v-45.504c.318-.239 1.668-1.033 2.382-1.43 1.27-.714 2.939-.159 3.574 1.112.238.477.318.953.318 1.509v44.313zm38.515-22.712V123.19c0-3.177 1.51-4.924 5.242-6.909 3.097-1.588 5.717-2.859 7.941-3.812 4.527-2.065 6.433-1.826 9.133-.159 1.826 1.112 3.573 2.383 5.24 3.733 2.383 1.985 2.383 3.573 2.383 7.544v22.792c0 4.288-1.747 5.717-3.573 7.147a51.788 51.788 0 01-6.91 4.526c-3.335 1.827-5.638 2.939-9.211 1.033a39.324 39.324 0 01-6.274-3.891c-3.335-2.462-3.97-4.765-3.97-7.227zm12.15 9.609c0 1.43.477 1.588 1.192 2.303.635.635 1.27 1.112 1.985 1.588 1.747 1.27 2.462-.08 2.462-1.43v-23.426c0-1.112-.476-2.145-1.35-2.7-1.27-1.112-1.588-1.668-3.097-.874-.715.318-1.191 1.112-1.191 1.906zm97.917-17.313v.398m-11.594-.398c0-1.905.08-3.811.318-5.717.238-1.906.635-3.494 4.606-5.718 1.35-.715 5.638-3.097 9.767-4.923 1.43-.636 5.956-2.939 9.61 2.303 1.27 1.747 2.382 3.494 3.335 5.4 2.859 5.161-.238 8.973-1.906 10.72-4.209 4.368-8.815 8.418-13.818 11.912 0 4.21 3.494 5.242 5.241 5.877 2.7 1.032 3.574 1.35 9.053 2.62l-6.353 9.69c-10.72-3.257-12.309-4.607-14.612-5.957-2.78-1.588-4.447-3.97-4.923-8.338-.08-1.747-.397-10.96-.318-17.868zm11.594.398v8.1a52.621 52.621 0 004.845-4.527c3.335-3.732-.795-9.926-2.145-11.276-1.508-1.51-2.7-.874-2.7 1.032v6.353m-60.751-5.638v35.974h-11.912v-32.798c0-4.05-.635-3.891-2.859-5.638-.317-.238-1.509-1.032-1.509-1.032l9.371-7.704a21.331 21.331 0 015.32 3.892c1.986-1.191 2.94-1.668 6.195-3.256 3.97-1.906 5.083-1.033 6.75.238 1.51 1.032 2.86 2.224 4.13 3.574 1.747 1.826 1.826 2.938 1.826 5.559v23.426c0 4.686.794 4.765 4.765 7.068l-7.862 9.053a30.535 30.535 0 01-4.13-3.017 24.69 24.69 0 01-2.62-2.303c-2.144-2.065-2.065-4.686-2.065-7.862v-24.857c0-2.144-2.144-2.382-3.415-1.667-.794.556-1.429.953-1.985 1.35zm38.674-.953v22.077c0 4.367 2.462 5.4 7.465 7.703l-6.353 9.53-6.353-3.336c-3.97-2.382-6.988-4.924-6.988-10.006v-25.889h-6.433v-8.894h6.433v-5.718l12.23-5.797v11.515h7.147v8.894h-7.148z"/><path fill="#006b35" d="M350.16 53.544c-4.686 0-8.816-3.255-8.816-8.735 0-5.48 4.13-8.735 8.815-8.735 4.686 0 8.736 3.176 8.736 8.735 0 5.559-4.13 8.735-8.736 8.735zm0-15.485c-3.495 0-6.354 2.7-6.354 6.75s2.78 6.75 6.353 6.75c3.335 0 6.274-2.7 6.274-6.75s-2.939-6.75-6.274-6.75zm-1.51 11.435h-1.985v-9.45h3.494c2.462 0 3.891.715 3.891 2.86.16 1.19-.794 2.302-1.985 2.46h-.318l2.383 4.13h-2.383l-2.144-3.97h-.953zm1.827-5.559c.873 0 1.43-.158 1.43-1.19 0-1.033-1.033-1.033-1.827-1.033h-1.43v2.303z"/></svg>