<svg id="Layer_1" data-name="Layer 1" xmlns="http://www.w3.org/2000/svg" viewBox="0 0 623.47 209.18"><path d="M200.94,160.72c-2.15,0-4.11-.05-6.06,0-.81,0-1-.49-1.3-1l-22.41-38a32.58,32.58,0,0,0-2.64-4c.42,4.09.84,8.18,1.28,12.52a37.68,37.68,0,0,1-4.63-2.3c-2.31-1.57-4.05-1.33-6.38.37a42.25,42.25,0,0,1-25.15,8.34A45,45,0,0,1,113.16,132l-.54-.25s-.07,0-.24.06q.28,14.33.59,28.73c-.51,0-.79-.29-1.12-.48-5.4-3.26-10.79-6.54-16.21-9.77a1.52,1.52,0,0,1-.83-1.52q0-23.73,0-47.45c0-.8.12-1.12,1-1,5.81.48,11.63.9,17.45,1.31a1.89,1.89,0,0,1,1.47.85,42.06,42.06,0,0,0,9,8.74c7.93,5.51,16,5,23.19-1.4a36.16,36.16,0,0,0,7.34-9.09,1.32,1.32,0,0,1,1.28-.83c5.67,0,11.34-.12,17-.24,1,0,1.25.28,1.25,1.25,0,1.84.16,3.67.19,5.5a3.68,3.68,0,0,0,.59,1.67q12.84,25.68,25.69,51.35Z" fill="#ed8324"/><path d="M142.35,71.41a3.33,3.33,0,0,0,.73-1.55c1.37-3.94,2.71-7.9,4.07-11.85.62-1.8,1.45-2.32,3.36-2a13.94,13.94,0,0,1,7.05,3.57A43.1,43.1,0,0,1,166.48,71a54.92,54.92,0,0,1,3.63,7.13,30.16,30.16,0,0,0,4.18,6.93,3.68,3.68,0,0,0,3,1.63c2.1.07,2.79,1.15,2.25,3.2a6.12,6.12,0,0,1-2.13,3,11.62,11.62,0,0,1-7.55,2.87c-11.35.32-22.7.19-34,.16-5.36,0-10.71-.11-16.06-.17-6.59-.07-13.19,0-19.77-.29a15.83,15.83,0,0,1-9.62-3.51,2.9,2.9,0,0,1-1.32-2,1.59,1.59,0,0,1,.83-1.61c3-1.57,4.93-4.24,6.81-6.93A85.89,85.89,0,0,0,101.63,73c3.46-6.39,7.73-12.1,13.86-16.22a24.45,24.45,0,0,1,2.15-1.29,2.61,2.61,0,0,1,4.06,1.64c1.45,4.31,2.88,8.62,4.32,12.93a1.61,1.61,0,0,0,.59.89c-.22-2.4-.43-4.79-.66-7.19-.43-4.64-.85-9.29-1.33-13.93-.1-1,0-1.3,1.13-1.29,6.11,0,12.23,0,18.34,0,.81,0,1.09.09,1,1-1,6.95-1.88,13.91-2.81,20.87A1.09,1.09,0,0,0,142.35,71.41Z" fill="#2d2b6d"/><path d="M86.17,164.61a61.27,61.27,0,0,1-9-8.58,77,77,0,0,1-18.91-39.76c-3.62-23.48,1.91-44.72,16.9-63.22a76.09,76.09,0,0,1,45.68-27.6c24.76-4.81,47.12.83,66.81,16.69a73.9,73.9,0,0,1,6.5,6c.13.14.24.31.39.5-.53.14-.76-.26-1.05-.47a77,77,0,0,0-38.17-14.76c-25.59-2.5-47.61,5.36-65.71,23.58a75.63,75.63,0,0,0-21.78,44.44c-3,23.2,3,43.93,17.88,62.05.26.31.48.63.72.95Z" fill="#ed8324"/><path d="M537,82.94v1.21c0,9.54,0,19.09,0,28.63,0,1-.24,1.26-1.24,1.23-2.59-.08-5.19-.05-7.79,0-.72,0-.94-.16-.94-.91q0-23.07,0-46.13c0-.72.16-.95.92-.93q4,.07,8,0a1.59,1.59,0,0,1,1.61.88q8.91,14.66,17.88,29.29c.2.33.43.66.78,1.21,0-.59.06-1,.06-1.32q0-14.45,0-28.87c0-.9.16-1.23,1.14-1.2,2.64.08,5.28,0,7.92,0,.68,0,.85.2.85.87q0,23.11,0,46.24c0,.68-.18.87-.86.86-2.8,0-5.6,0-8.39,0-.72,0-1-.37-1.26-.85Q546.82,98.57,537.91,84C537.7,83.63,537.59,83.17,537,82.94Z" fill="#2d2b6c"/><path d="M474.33,90a27.79,27.79,0,0,1,3-14.33c3.55-6.62,9.17-10,16.65-10.29,11.09-.47,19.1,6.57,20.92,18,1,6.28.9,12.57-1.38,18.64-3.5,9.32-11.86,13.75-21.53,12.55-9.17-1.14-15.28-7.73-17.1-17.18A34.66,34.66,0,0,1,474.33,90Zm30.84.07a27.64,27.64,0,0,0-1.05-9.23c-2.38-7.39-8.56-8.25-13-6.6-3.15,1.18-4.81,3.75-5.69,6.81a36.4,36.4,0,0,0-.6,15.3,12.8,12.8,0,0,0,3.7,7.86c4.75,4.43,12.39,2.6,15.06-3.58A24.86,24.86,0,0,0,505.17,90Z" fill="#2e2c6d"/><path d="M346.89,114c-3.34,0-6.68,0-10,0-.57,0-.59-.41-.71-.78-.93-2.8-1.9-5.58-2.78-8.39a1.07,1.07,0,0,0-1.23-.92q-7.72,0-15.46,0c-.75,0-1,.25-1.22.93-.85,2.74-1.81,5.44-2.66,8.17-.22.72-.5,1-1.3,1-3.16-.06-6.31,0-9.64,0,.53-1.47,1-2.86,1.55-4.25q8-21.35,15.95-42.71a1.24,1.24,0,0,1,1.43-1c2.48.06,5,0,7.43,0a.91.91,0,0,1,1.06.68q8.79,23.48,17.61,46.94C346.92,113.73,346.89,113.81,346.89,114ZM324.37,78.3,318.45,96c3.81,0,7.44,0,11.08,0,.69,0,.82-.18.59-.81-.63-1.8-1.24-3.61-1.85-5.42C327,86.07,325.74,82.34,324.37,78.3Z" fill="#2e2b6d"/><path d="M263.46,90c0-7.63,0-15.26,0-22.89,0-.88.19-1.12,1.1-1.12,6.32,0,12.64-.09,18.95.06,5.71.14,10.81,1.94,14.21,6.86,6.47,9.39,1.43,21.34-9.85,23.53a27.86,27.86,0,0,1-5.24.51c-3,0-6.06,0-9.09.07-.3,3.06-.07,6.13-.13,9.19,0,2.23,0,4.47,0,6.71,0,.83-.19,1.07-1,1q-3.84-.09-7.68,0c-1,0-1.26-.18-1.26-1.21C263.48,105.21,263.46,97.62,263.46,90Zm9.93-8.58c0,2.2,0,4.39,0,6.59,0,.86.26,1.06,1.08,1,2.35-.06,4.71,0,7.07,0a20.59,20.59,0,0,0,3.33-.28c3.43-.63,5.36-3.08,5.4-6.71.05-4.5-2.33-7.44-6.71-8-3.18-.38-6.39-.07-9.58-.14-.64,0-.56.4-.56.8Z" fill="#2d2b6c"/><path d="M159.31,150.19a6.18,6.18,0,0,1-1,2.5,44.64,44.64,0,0,1-25.26,21.16c-.41.14-1.06,0-1,.72s.76.61,1.18.7A44,44,0,0,1,145,179.16a12.28,12.28,0,0,1,3.77,2.9,4.59,4.59,0,0,1,1.23,3.11c-.25.21-.41,0-.57-.06A33.58,33.58,0,0,0,132.65,180a38.4,38.4,0,0,0-16.88,2.62,36.78,36.78,0,0,1-8.93,2.6,11.89,11.89,0,0,1-1.79.14,2.67,2.67,0,0,1-2.91-2.13,2.51,2.51,0,0,1,1-2.86,23.21,23.21,0,0,1,6.44-3.61c.56-.24,1.58-.09,1.57-.94,0-1-1.08-.71-1.69-.87-18.77-4.93-30.32-16.88-34.11-35.85-2.09-10.45-.06-20.47,5.2-29.77a5.5,5.5,0,0,1,.34-.5,2.41,2.41,0,0,1,.44-.23c-4.06,11.16-4.1,22.16.39,33a44.45,44.45,0,0,0,53,25.84A45,45,0,0,0,159.31,150.19Z" fill="#2f2c6d"/><path d="M464.71,82.35c-3.21,0-6.33,0-9.44,0-.5,0-.55-.22-.6-.63-.62-5.4-3-8.35-9.76-8.19A8.2,8.2,0,0,0,437,79a21.85,21.85,0,0,0-1.44,8.2c-.05,3.9-.21,7.82.69,11.67,1.59,6.83,8.16,9.82,14.42,6.56a7.23,7.23,0,0,0,3.81-6c.15-1.22.56-1.55,1.75-1.5,2.35.1,4.72.11,7.07,0,1.28-.06,1.44.4,1.28,1.49-1,7-4.71,11.82-11.46,14.12a22.93,22.93,0,0,1-14.14.34c-6.53-1.93-10.5-6.57-12.26-13a39.08,39.08,0,0,1,0-21.63c3-10.18,11.12-15,21.69-13.84,5.37.57,9.89,2.74,13.07,7.26A19.75,19.75,0,0,1,464.71,82.35Z" fill="#2e2c6d"/><path d="M371.35,101.47l6.33-20.9c1.37-4.53,2.73-9.07,4.11-13.6.12-.41.1-.94.83-.94,3.46,0,6.93,0,10.56,0-.81,2.33-1.57,4.54-2.34,6.75q-7,20-14,40c-.3.88-.66,1.23-1.65,1.19-2.8-.08-5.6-.05-8.4,0a1,1,0,0,1-1.1-.76l-16.3-46.92a1.23,1.23,0,0,1,0-.27h5.4c1.52,0,3,0,4.55,0,.78,0,1.07.21,1.3,1q5,16.66,10,33.29l.39,1.2Z" fill="#2e2b6d"/><path d="M207.91,142.52c1-6.92,2-13.81,2.93-20.71q1.74-12.25,3.49-24.51,1.84-13,3.7-26c.22-1.58.45-3.16.65-4.74.08-.66.3-.94,1-.93,3.68,0,7.36,0,11,0,.68,0,.9.14.79.87q-3.09,20.52-6.13,41-1,6.5-1.92,13a2.6,2.6,0,0,1-.46,1.2q-7.26,10.11-14.5,20.24C208.38,142.16,208.28,142.46,207.91,142.52Z" fill="#2e2c6d"/><path d="M214.35,160.67c-2.83,0-5.67,0-8.5.07-.74,0-.83-.51-1-.94q-4.69-9.95-9.37-19.9-6-12.87-12.07-25.75a5.21,5.21,0,0,1,.1-4.91q11.5-21.3,23-42.63a1.68,1.68,0,0,1,1.76-1c1.72.08,3.44.08,5.16,0,1.09,0,1.09.28.66,1.11q-5.73,11-11.42,22-6.47,12.47-12.94,24.93a1.12,1.12,0,0,0,0,1.21q9.18,16.85,18.35,33.71a2.6,2.6,0,0,0,.51,1.18Z" fill="#ed8324"/><path d="M214.35,160.67l-5.88-11a2.6,2.6,0,0,1-.51-1.18c3.19-4.24,6.39-8.46,9.57-12.71a1.34,1.34,0,0,1,1.22-.54c3.28,0,6.55,0,9.83,0a1.31,1.31,0,0,1,1.31.77q6.75,11.82,13.54,23.62c.22.4.93,1-.33,1q-14.25,0-28.51.08A2,2,0,0,1,214.35,160.67Z" fill="#2e2b6d"/><path d="M413,90c0,7.62,0,15.25,0,22.87,0,.89-.19,1.14-1.1,1.12-2.56-.07-5.12-.08-7.67,0-1,0-1.26-.23-1.25-1.24q0-19.81,0-39.64c0-2.08,0-4.16,0-6.23,0-.69.2-.88.88-.87,2.71,0,5.43,0,8.15,0,.79,0,1,.22,1,1C413,74.68,413,82.35,413,90Z" fill="#2f2c6d"/><path d="M203.17,65.61c-8.4,14.17-16.66,28.13-25.07,42.33a38.49,38.49,0,0,0-1.53-5.5c-1.38-3.12-.56-5.57,1.22-8.33,5.86-9.09,11.45-18.35,17.11-27.55a1.71,1.71,0,0,1,1.7-1C198.7,65.65,200.82,65.61,203.17,65.61Z" fill="#ed8324"/><path d="M461.52,137.33c1.53-4.32,3-8.43,4.43-12.57.3-.87.63-1.33,1.65-1.22a25.11,25.11,0,0,0,3.36,0c.56,0,.75.15.75.74q0,8.87,0,17.73c0,.59-.21.7-.76.73-3.3.15-3.3.17-3.3-3.08v-10c-.14.07-.14.46-.25.76-1.38,3.77-2.81,7.53-4.09,11.34-.4,1.17-1.18.9-2,.94s-1.29.07-1.62-.91c-1.27-3.77-2.68-7.5-4.05-11.24-.11-.32-.25-.63-.34-.85v6.36c0,1.95,0,3.91.07,5.86,0,.66-.23.82-.83.79-1-.06-2.37.33-3-.19s-.21-1.94-.21-3c0-5,0-10,0-15,0-.93.25-1.17,1.13-1.09,1.38.13,3.09-.52,4.06.25s1.06,2.41,1.52,3.68C459.17,130.7,460.31,133.92,461.52,137.33Z" fill="#302d6e"/><path d="M345.07,136.05v-10c0-.6,0-1.2,0-1.8s.09-.67.64-.71c3.35-.23,3.35-.25,3.35,3.07,0,5,0,10.06,0,15.1,0,.85-.28.95-1.06,1.07-2.24.35-3.53-.51-4.59-2.5-1.64-3.09-3.61-6-5.44-9l-.62-1v10.49c0,1.93,0,1.93-1.94,1.93-2.11,0-2.11,0-2.11-2.11,0-5.35,0-10.7,0-16.06,0-.85.26-.94,1-1,2.28-.35,3.6.51,4.66,2.57,1.56,3,3.49,5.81,5.27,8.69C344.46,135.12,344.67,135.43,345.07,136.05Z" fill="#302d6e"/><path d="M255.07,158.76l-17-23.49h16.27c.56,0,1,0,1,.78,0,7.53,0,15.07,0,22.61Z" fill="#2f2c6d"/><path d="M522.11,133.13c0-2.83,0-5.67,0-8.5,0-.93.27-1.12,1.13-1.08,1.72.07,3.43,0,5.15,0a8.15,8.15,0,0,1,8.28,6.71c.77,4,.45,7.92-3.1,10.76a7.82,7.82,0,0,1-5,1.7c-1.75,0-3.51,0-5.27,0-.89,0-1.22-.15-1.19-1.14C522.16,138.79,522.11,136,522.11,133.13Zm4,0c0,1.91,0,3.82,0,5.74,0,.3-.17.68.42.79a4.9,4.9,0,0,0,6-4,13,13,0,0,0,.14-3.93c-.48-3.8-2-5.15-5.85-5-.64,0-.79.21-.78.82C526.17,129.36,526.15,131.23,526.15,133.11Z" fill="#2f2c6d"/><path d="M301.22,131.93c2-2.63,4-5.14,5.92-7.67a1.52,1.52,0,0,1,1.38-.71c1.31.06,2.62,0,4.18,0-1.81,2.25-3.48,4.36-5.17,6.45s-1.68,2.06-.18,4.32l5.54,8.39c-1.65,0-3.13,0-4.62,0-.43,0-.51-.46-.69-.74-1.46-2.23-2.9-4.48-4.38-6.77-1.23,1.06-2.39,2-2.09,3.89.15.89,0,1.84,0,2.75s-.24,1-.95.91c-1-.07-2.27.31-2.89-.18s-.2-1.86-.21-2.84c0-5,0-10.06,0-15.09,0-.9.21-1.12,1.11-1.11,3,0,3,0,3,3v5A3.17,3.17,0,0,0,301.22,131.93Z" fill="#2f2c6d"/><path d="M387,142.74c-1.31,0-2.54,0-3.77,0-.46,0-.6-.25-.72-.62-.29-.91-.63-1.8-.87-2.72a.84.84,0,0,0-1-.75c-1.8,0-3.6,0-5.39,0a.85.85,0,0,0-1,.75c-.32,1.1-.47,2.75-1.21,3.11-1.09.54-2.63.14-4,.14a15.49,15.49,0,0,1,1-3c1.87-5,3.77-10.06,5.62-15.1a1.26,1.26,0,0,1,1.43-1c2.76.06,2.76,0,3.71,2.56l5.86,15.64C386.75,142,386.85,142.34,387,142.74Zm-8.94-13.81-.26,0c-.72,2.17-1.45,4.33-2.21,6.6,1.45,0,2.72,0,4,0,.43,0,.7-.05.52-.58C379.41,133,378.73,131,378.05,128.93Z" fill="#2f2c6d"/><path d="M316.28,133.14c0-2.87,0-5.74,0-8.62,0-.8.23-1,1-1,3.67,0,7.35,0,11,0,.81,0,1,.23,1,1,0,2.15,0,2.15-2.09,2.15s-4,0-6,0c-.66,0-.91.16-.87.86.07,1.19-.39,2.75.2,3.47s2.24.17,3.43.23c.67,0,1.36,0,2,0s1.53-.32,1.81.16c.43.73.16,1.71.13,2.58,0,.57-.54.35-.84.36-2,0-3.92,0-5.88,0-.64,0-.91.13-.88.84.06,1.2.05,2.4,0,3.59,0,.67.17.89.86.87,2.35,0,4.71,0,7.07,0,.82,0,1.09.16,1.07,1-.06,2.1,0,2.1-2.13,2.1-3.28,0-6.56,0-9.83,0-.93,0-1.11-.26-1.09-1.13C316.32,138.81,316.28,136,316.28,133.14Z" fill="#2e2b6d"/><path d="M511.62,123.57c1.88,0,3.75,0,5.63,0,.64,0,.79.19.8.81,0,2.33.06,2.33-2.26,2.33-1.95,0-3.91,0-5.87,0-.61,0-.85.14-.81.79a29.82,29.82,0,0,1,0,3c0,.64.17.82.8.8,2,0,3.91,0,5.87,0,.7,0,1,.13,1,.91,0,2.23,0,2.23-2.14,2.23-1.52,0-3,0-4.56,0-.69,0-1,.11-.95.9a28.69,28.69,0,0,1,0,3.47c0,.72.15.95.92.94,2.35-.06,4.71,0,7.07,0,.74,0,1,.14,1,1,0,2.17,0,2.17-2.18,2.17-3.32,0-6.64,0-9.95,0-.76,0-.92-.21-.91-.93q0-8.69,0-17.36c0-.75.19-.94.93-.92C507.86,123.61,509.74,123.57,511.62,123.57Z" fill="#2e2b6d"/><path d="M352.24,123.57c1.38,0,2.61,0,3.83,0,.65,0,.79.37,1,.81,1.14,2.49,2.29,5,3.55,7.69.69-1.46,1.31-2.73,1.9-4s1.19-2.52,1.74-3.8a1,1,0,0,1,1.06-.69c1.16,0,2.32,0,3.69,0-.74,1.45-1.41,2.78-2.09,4.1q-1.92,3.72-3.86,7.42a2.89,2.89,0,0,0-.34,1.49c0,1.76,0,3.52,0,5.27,0,.63-.1,1-.83.91-1.07-.08-2.47.34-3.14-.2s-.29-2-.2-3.07a11.83,11.83,0,0,0-1.8-7.25C355.14,129.46,353.78,126.54,352.24,123.57Z" fill="#302d6e"/><path d="M495.05,134.8c0,2.32,0,4.63,0,6.95,0,.74-.12,1.11-1,1-1-.13-2.38.43-3-.24s-.17-1.9-.17-2.89c0-4,0-8,0-12,0-.8-.21-1-1-1-1.36.06-2.72,0-4.08,0-.55,0-.73-.13-.75-.72-.1-2.41-.12-2.41,2.29-2.41,4.12,0,8.24,0,12.36,0,.91,0,1.23.19,1.19,1.16-.08,2,0,2-2,2-1,0-2.08,0-3.11,0-.65,0-.81.2-.81.82C495.07,129.93,495.05,132.36,495.05,134.8Z" fill="#2e2c6d"/><path d="M425.19,133.08c0-2.88,0-5.75,0-8.62,0-.77.23-.91.94-.91,3.13,0,3.13,0,3.13,3,0,4,0,8.06,0,12.08,0,.79.21,1,1,1,2.15-.06,4.31,0,6.46,0,.74,0,1,.12,1,.95,0,2.18,0,2.18-2.16,2.18-3,0-5.91-.05-8.87,0-1.13,0-1.56-.16-1.51-1.44C425.28,138.58,425.19,135.83,425.19,133.08Z" fill="#2e2c6d"/><path d="M445.82,133.28c0,2.87,0,5.74,0,8.62,0,.67-.18.9-.86.86-1-.07-2.37.33-3-.18s-.21-1.94-.22-3c0-5,0-10.06,0-15.08,0-.78.19-1.05,1-1,1,.09,2.32-.32,2.89.18s.2,1.94.21,3C445.84,128.89,445.82,131.08,445.82,133.28Z" fill="#2d2b6c"/><path d="M477.25,133c0-2.87,0-5.74,0-8.62,0-.68.19-.9.87-.85,1,.07,2.37-.33,3,.18s.2,1.94.21,3c0,5,0,10,0,15.08,0,.79-.2,1-1,1-1-.08-2.28.31-2.9-.18s-.18-1.86-.2-2.84C477.22,137.5,477.25,135.27,477.25,133Z" fill="#2d2b6c"/><path d="M455.57,169.83c1.24-4.07,2.45-8,3.6-11.92.21-.73,1-1.77-.65-2.13a21.25,21.25,0,0,1,4.2-.83l-2.43,8.28c.75,0,.83-.52,1.09-.83a6.86,6.86,0,0,1,3.09-2.54,1.44,1.44,0,0,1,2,1.37,4.35,4.35,0,0,1-.28,1.75c-.5,1.48-1,3-1.48,4.42-.12.37-.35.73-.08,1.16.76-.12.92-1,1.59-1.36-.19,1.55-2.12,3.1-3.43,2.86-1-.18-1.38-1-1-2.15.49-1.68,1.07-3.34,1.59-5,.12-.36.45-.82.06-1.1s-.82.18-1.11.46a11.9,11.9,0,0,0-3.46,5.9c-.31,1.41-1,1.92-2.35,1.68A5.25,5.25,0,0,0,455.57,169.83Zm4.75-6.49a2,2,0,0,0-.11.32s.1.07.16.1l.16-.31Z" fill="#eb8223" stroke="#eb8223" stroke-miterlimit="10"/><path d="M307.73,170.15c-2.08-4.33-4-8.32-6.06-12.59-1,3.52-2,6.76-2.91,10-.35,1.22.46,1.69,1.43,2.14H295.5c2.34-.5,2.44-2.55,3-4.28.73-2.32,1.39-4.66,2.09-7s.61-2.27-1.57-2.93c.46-.52,1-.21,1.52-.31,2.6-.51,4.14.44,5,3.06a59.14,59.14,0,0,0,3.06,6.59c.79-2.76,1.52-5.21,2.18-7.68.29-1.1-.76-1.28-1.39-1.85h4.58c-2.4.57-2.43,2.71-3,4.46-1,3-1.86,6.1-2.79,9.15C308.07,169.22,308,169.51,307.73,170.15Z" fill="#eb8223" stroke="#eb8223" stroke-miterlimit="10"/><path d="M362.32,170.05c-1.51-1.73-1.31-2.29,1.43-3.93a2.78,2.78,0,0,1-1.78-3,3.62,3.62,0,0,1,2.54-2.91,5.17,5.17,0,0,1,4.4.1c.76.4,1.57.1,2.34.21.27,0,.73-.18.66.39-.05.37-.07.88-.65.8-.85-.11-.86.21-.76,1,.28,2-1.51,3.73-4,3.83-.59,0-1.19-.1-1.78-.08s-1.11.23-1.16.83.55.59,1,.71a18.1,18.1,0,0,1,3,.85,2.69,2.69,0,0,1,.69,4.73c-1.66,1.45-6.2,1.55-7.93.16a1.61,1.61,0,0,1,.26-2.9A18.66,18.66,0,0,1,362.32,170.05Zm2.14,4.15c.43-.07.86-.11,1.28-.22a1.6,1.6,0,0,0,1.34-1.49c0-.82-.56-1.2-1.23-1.43s-1.29-.38-2-.54a1.93,1.93,0,0,0-2.34,1.24,1.74,1.74,0,0,0,1.25,2.13A5.08,5.08,0,0,0,364.46,174.2ZM367.92,162c.08-.93,0-1.48-.67-1.69a1.24,1.24,0,0,0-1.44.59,7.13,7.13,0,0,0-1.21,3.68,1.19,1.19,0,0,0,.72,1.36,1.15,1.15,0,0,0,1.41-.59A7.32,7.32,0,0,0,367.92,162Z" fill="#eb8223" stroke="#eb8223" stroke-miterlimit="10"/><path d="M517.58,170.05c-1.57-1.65-1.36-2.2,1.38-4a2.73,2.73,0,0,1-1.8-2.84,3.45,3.45,0,0,1,2.18-2.93,5.36,5.36,0,0,1,4.84-.05c.93.48,2,0,2.92.28.17,1.26-.73,1.16-1.53,1.13.57,2.71-1,4.62-3.77,4.77-.63,0-1.27-.1-1.9-.08a1,1,0,0,0-1.1.77c-.08.57.5.64.9.75.92.26,1.87.43,2.77.75a2.67,2.67,0,0,1,2,2.26,2.8,2.8,0,0,1-1.62,3,8,8,0,0,1-7,0,1.69,1.69,0,0,1-1.12-1.7,1.83,1.83,0,0,1,1.29-1.57C516.5,170.43,517,170.27,517.58,170.05Zm2,4.14a11.14,11.14,0,0,0,1.29-.19,1.61,1.61,0,0,0,1.4-1.56c0-.81-.59-1.17-1.26-1.39s-1.29-.38-1.95-.54a1.89,1.89,0,0,0-2.31,1.3c-.28,1.05.32,1.65,1.19,2.05A3.94,3.94,0,0,0,519.59,174.19Zm3.56-12.43c.05-.72-.07-1.22-.63-1.44a1.2,1.2,0,0,0-1.46.51,7.08,7.08,0,0,0-1.25,3.66,1.22,1.22,0,0,0,.76,1.45,1.2,1.2,0,0,0,1.4-.65A7.56,7.56,0,0,0,523.15,161.76Z" fill="#eb8223" stroke="#eb8223" stroke-miterlimit="10"/><path d="M422.32,159.2c.32-1.18.67-2.35,1-3.54.12-.48.46-.46.83-.46,3.43,0,6.87,0,10.3,0,.43,0,.81,0,.62.62-.34,1.13-.64,2.28-.95,3.42-.53-.11-.34-.45-.37-.68a2.35,2.35,0,0,0-2.26-2.34c-.43-.06-.65,0-.78.46-1.09,3.7-2.2,7.4-3.29,11.11-.38,1.32.57,1.53,1.52,1.88h-7.08c2.27-.26,2.39-2.15,2.86-3.74,1-3.2,1.91-6.41,2.86-9.62C425.88,156.12,425.38,156.41,422.32,159.2Z" fill="#eb8223" stroke="#eb8223" stroke-miterlimit="10"/><path d="M325.71,160.69l2.07-.56c1.62-.43,1.67-.43,1.88,1.27.15,1.25.17,2.52.27,4.06,1.27-1.78,2.38-3.36,3.51-4.93.22-.29.33-.87.83-.69s.21.63.25,1c.24,2.09.46,4.18.71,6.47a10.33,10.33,0,0,0,2.21-2.73,2,2,0,0,0-.15-2.44,1.36,1.36,0,0,1-.15-1.85,1.17,1.17,0,0,1,1.39-.44,1.57,1.57,0,0,1,1,1.62,6.72,6.72,0,0,1-1.45,3.62,27.27,27.27,0,0,1-4.57,4.73c-.6.53-.79.24-.85-.41-.17-1.82-.37-3.64-.59-5.79L329,167.83c-.44.61-.87,1.24-1.32,1.85-.13.19-.26.46-.55.34s-.15-.4-.15-.62c0-2.24.07-4.48.05-6.71C327.05,161.78,326.9,160.88,325.71,160.69Z" fill="#eb8223" stroke="#eb8223" stroke-miterlimit="10"/><path d="M469.47,169.78c.64-2.11,1.26-4.16,1.87-6.21.15-.5.3-1,.4-1.5.2-1,.16-1.06-1.25-1.55,1.58-.29,2.83-.54,4.09-.75.57-.1.51.24.41.65a7.27,7.27,0,0,0-.6,2.63c.63-.09.75-.63,1.06-1a6.58,6.58,0,0,1,2.9-2.23,1.49,1.49,0,0,1,2.06,1.44,7.58,7.58,0,0,1-.6,2.78,32.64,32.64,0,0,0-1.37,4.57c.93,0,1.06-.89,1.79-1a3.79,3.79,0,0,1-1.82,2.1,1.88,1.88,0,0,1-2.24,0c-.72-.6-.47-1.39-.27-2.11.45-1.53,1-3,1.42-4.57.13-.43.52-1,0-1.3s-.9.23-1.22.55a11.53,11.53,0,0,0-3.47,5.88c-.25,1.34-.87,1.92-2.24,1.64A6.28,6.28,0,0,0,469.47,169.78Zm5-6.51-.16-.16c-.06.08-.15.15-.17.24s.1.13.16.19Z" fill="#eb8223" stroke="#eb8223" stroke-miterlimit="10"/><path d="M402.61,174.15a2.07,2.07,0,0,0,1.26-1.32,4.19,4.19,0,0,0,.23-.68c1-3.61,2-7.22,3-10.75-.35-.48-1.72.35-1.12-1,.06-.13.19-.33.28-.33,1.33,0,1.66-1.07,2.21-1.92,1.23-1.85,2.75-3.22,5.15-3.14a4.17,4.17,0,0,1,.71.08c.69.17,1.22.54,1,1.34a1,1,0,0,1-1.33.7c-.94-.26-.66-.91-.32-1.52-.79-.28-1.19.22-1.58.65a8,8,0,0,0-1.54,3.08c-.15.48-.07.74.53.71.24,0,.72-.2.67.35,0,.37-.09.93-.64.82-1.21-.24-1.33.58-1.57,1.41a78.66,78.66,0,0,1-2.34,7.66,7.31,7.31,0,0,1-2.57,3.66,4.11,4.11,0,0,1-3,.68c-.66-.11-1.31-.41-1.16-1.24a1.1,1.1,0,0,1,1.47-.86c.77.16.86.73.56,1.39C402.52,173.93,402.58,174,402.61,174.15Z" fill="#eb8223" stroke="#eb8223" stroke-miterlimit="10"/><path d="M352.76,168.64a2.67,2.67,0,0,1-1.4,1.23,1.69,1.69,0,0,1-2.5-1,2.88,2.88,0,0,1-.22-1.16,8.66,8.66,0,0,1,4.09-7.41c1.41-.91,2.3-.68,3.18.69.42-1.54,1.6-.89,2.51-.93.58,0,.22.46.15.7-.62,2.14-1.28,4.27-1.88,6.42-.12.44-.65,1-.05,1.38s.78-.39,1.11-.71c.13-.13.22-.34.46-.28a3.45,3.45,0,0,1-3.51,2.52c-.92-.17-1.08-.79-1-1.61,0-.27.6-.82-.28-.79l0,0c.43-1,.89-1.92,1.28-2.9a6.67,6.67,0,0,0,.55-3.61,1,1,0,0,0-.53-.88.78.78,0,0,0-.94.35,12,12,0,0,0-2.41,7.08c0,.7.38,1.15,1.18.73Z" fill="#eb8223" stroke="#eb8223" stroke-miterlimit="10"/><path d="M529,160.72c.94-.28,1.87-.58,2.82-.83s.89.56,1,1a18.92,18.92,0,0,1,.55,4.5c0,1,.09,1.9.15,3.24a23.51,23.51,0,0,0,3-4.9,1.23,1.23,0,0,0-.57-1.55,1.17,1.17,0,0,1-.47-1.65,1.23,1.23,0,0,1,1.48-.73,1.48,1.48,0,0,1,1.18,1.48,4.8,4.8,0,0,1-.69,2.39,44,44,0,0,1-6.28,8.87,6.93,6.93,0,0,1-2.68,2,1.52,1.52,0,0,1-2-.6,1.14,1.14,0,0,1,.3-1.6,1.36,1.36,0,0,1,1.94.18c.37.35.71.64,1.25.31a1.4,1.4,0,0,0,.84-1.31c0-3-.08-6-.3-9A1.69,1.69,0,0,0,529,160.72Z" fill="#eb8223" stroke="#eb8223" stroke-miterlimit="10"/><path d="M402,163a7.56,7.56,0,0,1-5.81,7c-2.59.51-4.33-1.12-4-3.72a7.69,7.69,0,0,1,5.89-6.46A3.08,3.08,0,0,1,402,163Zm-2.66-1c0-.65.09-1.38-.65-1.64s-1.31.35-1.72,1a2.25,2.25,0,0,0-.12.21,16.66,16.66,0,0,0-2,6.33c-.07.7-.06,1.43.73,1.71s1.24-.36,1.59-.94A15.13,15.13,0,0,0,399.3,162Z" fill="#eb8223" stroke="#eb8223" stroke-miterlimit="10"/><path d="M493.36,163a7.57,7.57,0,0,1-5.73,7c-2.65.56-4.43-1.08-4.05-3.73a7.7,7.7,0,0,1,5.92-6.44A3.08,3.08,0,0,1,493.36,163Zm-2.66-1.07c0-.65.09-1.37-.66-1.63s-1.25.29-1.65.87a3,3,0,0,0-.19.3,17,17,0,0,0-2,6.33c-.06.71-.05,1.44.74,1.71s1.24-.37,1.6-1A15.25,15.25,0,0,0,490.7,161.94Z" fill="#eb8223" stroke="#eb8223" stroke-miterlimit="10"/><path d="M513.51,163a7.58,7.58,0,0,1-5.83,7c-2.59.49-4.31-1.14-3.95-3.75a7.68,7.68,0,0,1,5.9-6.44A3.07,3.07,0,0,1,513.51,163Zm-2.66-1.06c0-.65.09-1.37-.66-1.63s-1.25.29-1.65.87a2.32,2.32,0,0,0-.19.31,16.92,16.92,0,0,0-2,6.32c-.06.71-.05,1.44.74,1.71s1.24-.37,1.6-1A15.25,15.25,0,0,0,510.85,161.94Z" fill="#eb8223" stroke="#eb8223" stroke-miterlimit="10"/><path d="M322.28,167.37c-1.3,2.26-4.84,3.4-6.8,2.35a2.66,2.66,0,0,1-1.35-2.38c-.2-3.68,3.61-7.62,7.32-7.58,1.59,0,2.33,1.09,1.68,2.57a5.63,5.63,0,0,1-4.46,3.2c-1.71.34-1.87.49-1.65,1.72s1.16,1.59,2.52,1.28a8.31,8.31,0,0,0,1.35-.47C321.3,167.89,321.69,167.67,322.28,167.37Zm-5.06-2.11a4.08,4.08,0,0,0,3.61-3.4c.11-.44.27-1-.27-1.29s-.92.13-1.24.48A9.52,9.52,0,0,0,317.22,165.26Z" fill="#eb8223" stroke="#eb8223" stroke-miterlimit="10"/><path d="M381.85,167.36a6,6,0,0,1-6.37,2.55,2.6,2.6,0,0,1-1.86-2.62c-.15-3.65,3.57-7.52,7.25-7.53,1.66,0,2.42,1.09,1.74,2.61a5.64,5.64,0,0,1-4.38,3.15c-1.76.37-2,.55-1.71,1.77s1.18,1.5,2.56,1.24A18.4,18.4,0,0,0,381.85,167.36Zm-5.14-2.13a4,4,0,0,0,3.6-3.32c.1-.45.3-1-.22-1.31s-1,.13-1.33.5A9.8,9.8,0,0,0,376.71,165.23Z" fill="#eb8223" stroke="#eb8223" stroke-miterlimit="10"/><path d="M441.45,167.49c-1.28,2.12-4.66,3.25-6.65,2.28a2.58,2.58,0,0,1-1.44-2.32c-.31-3.68,3.57-7.74,7.33-7.69a1.68,1.68,0,0,1,1.67,2.58,5.65,5.65,0,0,1-4.48,3.19c-1.69.34-1.86.5-1.63,1.73.19,1,1.12,1.51,2.42,1.32C439.64,168.43,440.41,167.76,441.45,167.49Zm-5-2.29a3.93,3.93,0,0,0,3.57-3.15c.13-.52.4-1.19-.27-1.5s-1,.23-1.31.62A10.1,10.1,0,0,0,436.44,165.2Z" fill="#eb8223" stroke="#eb8223" stroke-miterlimit="10"/><path d="M500.85,167.71a5,5,0,0,1-2.61,2.25c-1.53.46-2.48-.41-2-1.94,1-3.52,2.09-7,3.15-10.54.23-.77.52-1.53-.7-1.8l3.15-.66c.79-.18,1,0,.71.83-1.15,3.65-2.25,7.31-3.34,11-.17.59-.74,1.42-.2,1.76s1-.56,1.42-1C500.52,167.51,500.65,167.44,500.85,167.71Z" fill="#eb8223" stroke="#eb8223" stroke-miterlimit="10"/><path d="M452.7,167.48a5.69,5.69,0,0,1-5.6,2.51,3,3,0,0,1-2.4-3.14,7.59,7.59,0,0,1,5.83-7,3.46,3.46,0,0,1,2.22.22,1.78,1.78,0,0,1,.33,3,1.12,1.12,0,0,1-1.62,0,1.06,1.06,0,0,1,0-1.6c.23-.28.82-.45.47-.93s-.85-.31-1.31-.11a5.21,5.21,0,0,0-2.78,3.7c-.39,1.4-.93,3,.51,4.1s2.64.11,3.85-.58A3,3,0,0,1,452.7,167.48Z" fill="#eb8223" stroke="#eb8223" stroke-miterlimit="10"/><path d="M353.46,167.66a.8.8,0,0,1-.48.73h0c-.17-.45.13-.6.48-.72Z" fill="#eb8223" stroke="#eb8223" stroke-miterlimit="10"/><path d="M86.58,164.59c.1.13.43.16.21.4s-.29,0-.36-.16Z" fill="#ed8324"/><path d="M86.43,164.83l-.26-.22.28-.16a.35.35,0,0,1,.13.14Z" fill="#ed8324"/><path d="M353,168.39l-.22.25-.15-.19c.12-.08.23-.25.39,0Z" fill="#eb8223" stroke="#eb8223" stroke-miterlimit="10"/><path d="M194.75,49l-.06,0,.08-.09.06.07Z" fill="#ed8324"/><path d="M460.32,163.34l.21.11-.16.31c-.06,0-.17-.08-.16-.1A2,2,0,0,1,460.32,163.34Z" fill="#eb8223" stroke="#eb8223" stroke-miterlimit="10"/></svg>